ply
format ascii 1.0
comment Created by Blender 2.76 (sub 0) - www.blender.org, source file: ''
element vertex 364
property float x
property float y
property float z
property float nx
property float ny
property float nz
property uchar red
property uchar green
property uchar blue
element face 124
property list uchar uint vertex_indices
end_header
0.006897 0.488564 -0.004607 0.007771 0.997371 0.072052 0 0 255
0.006510 0.482442 0.080186 0.007771 0.997371 0.072052 0 0 255
0.008533 0.482425 0.080194 0.007771 0.997371 0.072052 0 0 255
0.006510 0.482442 0.080186 0.006596 0.957684 0.287747 0 0 255
0.005983 0.457727 0.162454 0.006596 0.957684 0.287747 0 0 255
0.008006 0.457711 0.162462 0.006596 0.957684 0.287747 0 0 255
0.005983 0.457727 0.162454 0.005347 0.875039 0.484022 0 0 255
0.005336 0.415370 0.239035 0.005347 0.875039 0.484022 0 0 255
0.007359 0.415354 0.239043 0.005347 0.875039 0.484022 0 0 255
0.005336 0.415370 0.239035 0.003477 0.758531 0.651628 0 0 255
0.004594 0.356999 0.306987 0.003477 0.758531 0.651628 0 0 255
0.006616 0.356983 0.306995 0.003477 0.758531 0.651628 0 0 255
0.004594 0.356999 0.306987 0.001785 0.617988 0.786186 0 0 255
0.003785 0.284856 0.363697 0.001785 0.617988 0.786186 0 0 255
0.005808 0.284840 0.363705 0.001785 0.617988 0.786186 0 0 255
0.003785 0.284856 0.363697 0.000200 0.461828 0.886970 0 0 255
0.002941 0.201715 0.406987 0.000200 0.461828 0.886970 0 0 255
0.004965 0.201698 0.406995 0.000200 0.461828 0.886970 0 0 255
0.002941 0.201715 0.406987 -0.001043 0.296238 0.955113 0 0 255
0.002094 0.110769 0.435194 -0.001043 0.296238 0.955113 0 0 255
0.004117 0.110752 0.435202 -0.001043 0.296238 0.955113 0 0 255
0.002094 0.110769 0.435194 -0.003093 0.125408 0.992101 0 0 255
0.001277 0.015514 0.447232 -0.003093 0.125408 0.992101 0 0 255
0.003300 0.015499 0.447241 -0.003093 0.125408 0.992101 0 0 255
0.001277 0.015514 0.447232 -0.003994 -0.047796 0.998849 0 0 255
0.000522 -0.080389 0.442640 -0.003994 -0.047796 0.998849 0 0 255
0.002544 -0.080405 0.442648 -0.003994 -0.047796 0.998849 0 0 255
0.000522 -0.080389 0.442640 -0.005783 -0.220990 0.975259 0 0 255
-0.000145 -0.173254 0.421593 -0.005783 -0.220990 0.975259 0 0 255
0.001878 -0.173270 0.421602 -0.005783 -0.220990 0.975259 0 0 255
-0.000145 -0.173254 0.421593 -0.006954 -0.391377 0.920204 0 0 255
-0.000696 -0.259513 0.384902 -0.006954 -0.391377 0.920204 0 0 255
0.001327 -0.259530 0.384910 -0.006954 -0.391377 0.920204 0 0 255
-0.000696 -0.259513 0.384902 -0.007899 -0.554907 0.831875 0 0 255
-0.001110 -0.335852 0.333976 -0.007899 -0.554907 0.831875 0 0 255
0.000913 -0.335869 0.333984 -0.007899 -0.554907 0.831875 0 0 255
-0.001110 -0.335852 0.333976 -0.008285 -0.705503 0.708659 0 0 255
-0.001371 -0.399336 0.270771 -0.008285 -0.705503 0.708659 0 0 255
0.000652 -0.399353 0.270778 -0.008285 -0.705503 0.708659 0 0 255
-0.001371 -0.399336 0.270771 -0.009031 -0.834702 0.550628 0 0 255
-0.001469 -0.447527 0.197717 -0.009031 -0.834702 0.550628 0 0 255
0.000553 -0.447544 0.197725 -0.009031 -0.834702 0.550628 0 0 255
-0.001469 -0.447527 0.197717 -0.008873 -0.932380 0.361369 0 0 255
-0.001401 -0.478571 0.117621 -0.008873 -0.932380 0.361369 0 0 255
0.000622 -0.478588 0.117628 -0.008873 -0.932380 0.361369 0 0 255
-0.001401 -0.478571 0.117621 -0.008715 -0.988737 0.149407 0 0 255
-0.001170 -0.491275 0.033561 -0.008715 -0.988737 0.149407 0 0 255
0.000854 -0.491292 0.033569 -0.008715 -0.988737 0.149407 0 0 255
-0.001170 -0.491275 0.033561 -0.007903 -0.997370 -0.072053 0 0 255
-0.000783 -0.485153 -0.051232 -0.007903 -0.997370 -0.072053 0 0 255
0.001241 -0.485169 -0.051224 -0.007903 -0.997370 -0.072053 0 0 255
-0.000783 -0.485153 -0.051232 -0.006551 -0.957688 -0.287734 0 0 255
-0.000255 -0.460439 -0.133500 -0.006551 -0.957688 -0.287734 0 0 255
0.001768 -0.460456 -0.133492 -0.006551 -0.957688 -0.287734 0 0 255
-0.000255 -0.460439 -0.133500 -0.005108 -0.875037 -0.484030 0 0 255
0.000392 -0.418082 -0.210082 -0.005108 -0.875037 -0.484030 0 0 255
0.002415 -0.418098 -0.210074 -0.005108 -0.875037 -0.484030 0 0 255
0.000392 -0.418082 -0.210082 -0.003476 -0.758529 -0.651630 0 0 255
0.001133 -0.359710 -0.278033 -0.003476 -0.758529 -0.651630 0 0 255
0.003156 -0.359726 -0.278025 -0.003476 -0.758529 -0.651630 0 0 255
0.001133 -0.359710 -0.278033 -0.001779 -0.617995 -0.786180 0 0 255
0.001942 -0.287567 -0.334744 -0.001779 -0.617995 -0.786180 0 0 255
0.003964 -0.287584 -0.334736 -0.001779 -0.617995 -0.786180 0 0 255
0.001942 -0.287567 -0.334744 -0.000096 -0.461829 -0.886969 0 0 255
0.002785 -0.204426 -0.378035 -0.000096 -0.461829 -0.886969 0 0 255
0.004808 -0.204443 -0.378026 -0.000096 -0.461829 -0.886969 0 0 255
0.002785 -0.204426 -0.378035 0.001526 -0.296233 -0.955114 0 0 255
0.003632 -0.113480 -0.406241 0.001526 -0.296233 -0.955114 0 0 255
0.005655 -0.113496 -0.406232 0.001526 -0.296233 -0.955114 0 0 255
0.003632 -0.113480 -0.406241 0.003047 -0.125407 -0.992101 0 0 255
0.004449 -0.018225 -0.418279 0.003047 -0.125407 -0.992101 0 0 255
0.006472 -0.018242 -0.418271 0.003047 -0.125407 -0.992101 0 0 255
0.004449 -0.018225 -0.418279 0.004478 0.047791 -0.998847 0 0 255
0.005206 0.077677 -0.413687 0.004478 0.047791 -0.998847 0 0 255
0.007229 0.077661 -0.413679 0.004478 0.047791 -0.998847 0 0 255
0.005206 0.077677 -0.413687 0.005329 0.220994 -0.975260 0 0 255
0.005872 0.170543 -0.392640 0.005329 0.220994 -0.975260 0 0 255
0.007895 0.170526 -0.392633 0.005329 0.220994 -0.975260 0 0 255
0.005872 0.170543 -0.392640 0.006741 0.391378 -0.920205 0 0 255
0.006423 0.256802 -0.355948 0.006741 0.391378 -0.920205 0 0 255
0.008446 0.256787 -0.355940 0.006741 0.391378 -0.920205 0 0 255
0.006423 0.256802 -0.355948 0.007903 0.554907 -0.831875 0 0 255
0.006837 0.333141 -0.305022 0.007903 0.554907 -0.831875 0 0 255
0.008859 0.333125 -0.305014 0.007903 0.554907 -0.831875 0 0 255
0.006837 0.333141 -0.305022 0.008328 0.705508 -0.708653 0 0 255
0.007098 0.396625 -0.241816 0.008328 0.705508 -0.708653 0 0 255
0.009121 0.396609 -0.241809 0.008328 0.705508 -0.708653 0 0 255
0.007098 0.396625 -0.241816 0.008751 0.834704 -0.550629 0 0 255
0.007196 0.444816 -0.168762 0.008751 0.834704 -0.550629 0 0 255
0.009219 0.444800 -0.168755 0.008751 0.834704 -0.550629 0 0 255
-0.000255 -0.460439 -0.133500 -0.999959 0.008076 -0.003980 0 0 255
-0.000145 -0.173254 0.421593 -0.999959 0.008076 -0.003980 0 0 255
0.005872 0.170543 -0.392640 -0.999959 0.008076 -0.003980 0 0 255
0.007128 0.475859 -0.088666 0.008624 0.988736 -0.149420 0 0 255
0.006897 0.488564 -0.004607 0.008624 0.988736 -0.149420 0 0 255
0.008919 0.488548 -0.004599 0.008624 0.988736 -0.149420 0 0 255
0.007196 0.444816 -0.168762 0.008498 0.932387 -0.361361 0 0 255
0.007128 0.475859 -0.088666 0.008498 0.932387 -0.361361 0 0 255
0.009152 0.475843 -0.088659 0.008498 0.932387 -0.361361 0 0 255
0.000622 -0.478588 0.117628 0.999959 -0.008076 0.003980 0 0 255
0.005655 -0.113496 -0.406232 0.999959 -0.008076 0.003980 0 0 255
0.004117 0.110752 0.435202 0.999959 -0.008076 0.003980 0 0 255
0.008919 0.488548 -0.004599 0.007786 0.997370 0.072052 0 0 255
0.006897 0.488564 -0.004607 0.007786 0.997370 0.072052 0 0 255
0.008533 0.482425 0.080194 0.007786 0.997370 0.072052 0 0 255
0.008533 0.482425 0.080194 0.006566 0.957684 0.287748 0 0 255
0.006510 0.482442 0.080186 0.006566 0.957684 0.287748 0 0 255
0.008006 0.457711 0.162462 0.006566 0.957684 0.287748 0 0 255
0.008006 0.457711 0.162462 0.005121 0.875039 0.484026 0 0 255
0.005983 0.457727 0.162454 0.005121 0.875039 0.484026 0 0 255
0.007359 0.415354 0.239043 0.005121 0.875039 0.484026 0 0 255
0.007359 0.415354 0.239043 0.003799 0.758533 0.651624 0 0 255
0.005336 0.415370 0.239035 0.003799 0.758533 0.651624 0 0 255
0.006616 0.356983 0.306995 0.003799 0.758533 0.651624 0 0 255
0.006616 0.356983 0.306995 0.001788 0.617988 0.786186 0 0 255
0.004594 0.356999 0.306987 0.001788 0.617988 0.786186 0 0 255
0.005808 0.284840 0.363705 0.001788 0.617988 0.786186 0 0 255
0.005808 0.284840 0.363705 0.000103 0.461827 0.886970 0 0 255
0.003785 0.284856 0.363697 0.000103 0.461827 0.886970 0 0 255
0.004965 0.201698 0.406995 0.000103 0.461827 0.886970 0 0 255
0.004965 0.201698 0.406995 -0.001436 0.296234 0.955114 0 0 255
0.002941 0.201715 0.406987 -0.001436 0.296234 0.955114 0 0 255
0.004117 0.110752 0.435202 -0.001436 0.296234 0.955114 0 0 255
0.004117 0.110752 0.435202 -0.002563 0.125414 0.992101 0 0 255
0.002094 0.110769 0.435194 -0.002563 0.125414 0.992101 0 0 255
0.003300 0.015499 0.447241 -0.002563 0.125414 0.992101 0 0 255
0.003300 0.015499 0.447241 -0.004440 -0.047802 0.998847 0 0 255
0.001277 0.015514 0.447232 -0.004440 -0.047802 0.998847 0 0 255
0.002544 -0.080405 0.442648 -0.004440 -0.047802 0.998847 0 0 255
0.002544 -0.080405 0.442648 -0.005315 -0.220984 0.975263 0 0 255
0.000522 -0.080389 0.442640 -0.005315 -0.220984 0.975263 0 0 255
0.001878 -0.173270 0.421602 -0.005315 -0.220984 0.975263 0 0 255
0.001878 -0.173270 0.421602 -0.006937 -0.391377 0.920204 0 0 255
-0.000145 -0.173254 0.421593 -0.006937 -0.391377 0.920204 0 0 255
0.001327 -0.259530 0.384910 -0.006937 -0.391377 0.920204 0 0 255
0.001327 -0.259530 0.384910 -0.007916 -0.554907 0.831875 0 0 255
-0.000696 -0.259513 0.384902 -0.007916 -0.554907 0.831875 0 0 255
0.000913 -0.335869 0.333984 -0.007916 -0.554907 0.831875 0 0 255
0.000913 -0.335869 0.333984 -0.008619 -0.705506 0.708652 0 0 255
-0.001110 -0.335852 0.333976 -0.008619 -0.705506 0.708652 0 0 255
0.000652 -0.399353 0.270778 -0.008619 -0.705506 0.708652 0 0 255
0.000652 -0.399353 0.270778 -0.008764 -0.834701 0.550634 0 0 255
-0.001371 -0.399336 0.270771 -0.008764 -0.834701 0.550634 0 0 255
0.000553 -0.447544 0.197725 -0.008764 -0.834701 0.550634 0 0 255
0.000553 -0.447544 0.197725 -0.009049 -0.932381 0.361365 0 0 255
-0.001469 -0.447527 0.197717 -0.009049 -0.932381 0.361365 0 0 255
0.000622 -0.478588 0.117628 -0.009049 -0.932381 0.361365 0 0 255
0.000622 -0.478588 0.117628 -0.008566 -0.988738 0.149411 0 0 255
-0.001401 -0.478571 0.117621 -0.008566 -0.988738 0.149411 0 0 255
0.000854 -0.491292 0.033569 -0.008566 -0.988738 0.149411 0 0 255
0.000854 -0.491292 0.033569 -0.007888 -0.997370 -0.072053 0 0 255
-0.001170 -0.491275 0.033561 -0.007888 -0.997370 -0.072053 0 0 255
0.001241 -0.485169 -0.051224 -0.007888 -0.997370 -0.072053 0 0 255
0.001241 -0.485169 -0.051224 -0.006702 -0.957686 -0.287738 0 0 255
-0.000783 -0.485153 -0.051232 -0.006702 -0.957686 -0.287738 0 0 255
0.001768 -0.460456 -0.133492 -0.006702 -0.957686 -0.287738 0 0 255
0.001768 -0.460456 -0.133492 -0.005079 -0.875037 -0.484029 0 0 255
-0.000255 -0.460439 -0.133500 -0.005079 -0.875037 -0.484029 0 0 255
0.002415 -0.418098 -0.210074 -0.005079 -0.875037 -0.484029 0 0 255
0.002415 -0.418098 -0.210074 -0.003477 -0.758529 -0.651630 0 0 255
0.000392 -0.418082 -0.210082 -0.003477 -0.758529 -0.651630 0 0 255
0.003156 -0.359726 -0.278025 -0.003477 -0.758529 -0.651630 0 0 255
0.003156 -0.359726 -0.278025 -0.001790 -0.617995 -0.786180 0 0 255
0.001133 -0.359710 -0.278033 -0.001790 -0.617995 -0.786180 0 0 255
0.003964 -0.287584 -0.334736 -0.001790 -0.617995 -0.786180 0 0 255
0.003964 -0.287584 -0.334736 -0.000103 -0.461828 -0.886969 0 0 255
0.001942 -0.287567 -0.334744 -0.000103 -0.461828 -0.886969 0 0 255
0.004808 -0.204443 -0.378026 -0.000103 -0.461828 -0.886969 0 0 255
0.004808 -0.204443 -0.378026 0.001526 -0.296233 -0.955115 0 0 255
0.002785 -0.204426 -0.378035 0.001526 -0.296233 -0.955115 0 0 255
0.005655 -0.113496 -0.406232 0.001526 -0.296233 -0.955115 0 0 255
0.005655 -0.113496 -0.406232 0.003062 -0.125408 -0.992101 0 0 255
0.003632 -0.113480 -0.406241 0.003062 -0.125408 -0.992101 0 0 255
0.006472 -0.018242 -0.418271 0.003062 -0.125408 -0.992101 0 0 255
0.006472 -0.018242 -0.418271 0.004478 0.047791 -0.998847 0 0 255
0.007229 0.077661 -0.413679 0.005785 0.220981 -0.975261 0 0 255
0.005206 0.077677 -0.413687 0.005785 0.220981 -0.975261 0 0 255
0.007895 0.170526 -0.392633 0.005785 0.220981 -0.975261 0 0 255
0.007895 0.170526 -0.392633 0.006512 0.391385 -0.920204 0 0 255
0.005872 0.170543 -0.392640 0.006512 0.391385 -0.920204 0 0 255
0.008446 0.256787 -0.355940 0.006512 0.391385 -0.920204 0 0 255
0.008446 0.256787 -0.355940 0.007629 0.554915 -0.831872 0 0 255
0.006423 0.256802 -0.355948 0.007629 0.554915 -0.831872 0 0 255
0.008859 0.333125 -0.305014 0.007629 0.554915 -0.831872 0 0 255
0.008859 0.333125 -0.305014 0.008619 0.705501 -0.708656 0 0 255
0.006837 0.333141 -0.305022 0.008619 0.705501 -0.708656 0 0 255
0.009121 0.396609 -0.241809 0.008619 0.705501 -0.708656 0 0 255
0.009121 0.396609 -0.241809 0.008829 0.834702 -0.550630 0 0 255
0.007098 0.396625 -0.241816 0.008829 0.834702 -0.550630 0 0 255
0.009219 0.444800 -0.168755 0.008829 0.834702 -0.550630 0 0 255
0.005983 0.457727 0.162454 -0.999959 0.008076 -0.003979 0 0 255
0.006510 0.482442 0.080186 -0.999959 0.008076 -0.003979 0 0 255
0.006897 0.488564 -0.004607 -0.999959 0.008076 -0.003979 0 0 255
0.006897 0.488564 -0.004607 -0.999959 0.008091 -0.003976 0 0 255
0.007128 0.475859 -0.088666 -0.999959 0.008091 -0.003976 0 0 255
0.005983 0.457727 0.162454 -0.999959 0.008091 -0.003976 0 0 255
0.007196 0.444816 -0.168762 -0.999960 0.008064 -0.003968 0 0 255
0.007098 0.396625 -0.241816 -0.999960 0.008064 -0.003968 0 0 255
0.006837 0.333141 -0.305022 -0.999960 0.008064 -0.003968 0 0 255
0.006837 0.333141 -0.305022 -0.999959 0.008077 -0.003983 0 0 255
0.006423 0.256802 -0.355948 -0.999959 0.008077 -0.003983 0 0 255
0.005872 0.170543 -0.392640 -0.999959 0.008077 -0.003983 0 0 255
0.005872 0.170543 -0.392640 -0.999959 0.008084 -0.004032 0 0 255
0.005206 0.077677 -0.413687 -0.999959 0.008084 -0.004032 0 0 255
0.004449 -0.018225 -0.418279 -0.999959 0.008084 -0.004032 0 0 255
0.004449 -0.018225 -0.418279 -0.999959 0.008076 -0.003974 0 0 255
0.003632 -0.113480 -0.406241 -0.999959 0.008076 -0.003974 0 0 255
0.005872 0.170543 -0.392640 -0.999959 0.008076 -0.003974 0 0 255
0.002785 -0.204426 -0.378035 -0.999959 0.008081 -0.003973 0 0 255
0.001942 -0.287567 -0.334744 -0.999959 0.008081 -0.003973 0 0 255
-0.000255 -0.460439 -0.133500 -0.999959 0.008081 -0.003973 0 0 255
0.001133 -0.359710 -0.278033 -0.999959 0.008070 -0.003981 0 0 255
0.000392 -0.418082 -0.210082 -0.999959 0.008070 -0.003981 0 0 255
-0.000255 -0.460439 -0.133500 -0.999959 0.008070 -0.003981 0 0 255
-0.000255 -0.460439 -0.133500 -0.999959 0.008117 -0.003976 0 0 255
-0.000783 -0.485153 -0.051232 -0.999959 0.008117 -0.003976 0 0 255
-0.001170 -0.491275 0.033561 -0.999959 0.008117 -0.003976 0 0 255
-0.001170 -0.491275 0.033561 -0.999960 0.008053 -0.003972 0 0 255
-0.001401 -0.478571 0.117621 -0.999960 0.008053 -0.003972 0 0 255
-0.001469 -0.447527 0.197717 -0.999960 0.008053 -0.003972 0 0 255
-0.001469 -0.447527 0.197717 -0.999960 0.008059 -0.003965 0 0 255
-0.001371 -0.399336 0.270771 -0.999960 0.008059 -0.003965 0 0 255
-0.001110 -0.335852 0.333976 -0.999960 0.008059 -0.003965 0 0 255
-0.001110 -0.335852 0.333976 -0.999960 0.008077 -0.003982 0 0 255
-0.000696 -0.259513 0.384902 -0.999960 0.008077 -0.003982 0 0 255
-0.000145 -0.173254 0.421593 -0.999960 0.008077 -0.003982 0 0 255
-0.000145 -0.173254 0.421593 -0.999960 0.008068 -0.003916 0 0 255
0.000522 -0.080389 0.442640 -0.999960 0.008068 -0.003916 0 0 255
0.001277 0.015514 0.447232 -0.999960 0.008068 -0.003916 0 0 255
0.001277 0.015514 0.447232 -0.999959 0.008076 -0.003974 0 0 255
0.002094 0.110769 0.435194 -0.999959 0.008076 -0.003974 0 0 255
-0.000145 -0.173254 0.421593 -0.999959 0.008076 -0.003974 0 0 255
0.002941 0.201715 0.406987 -0.999960 0.008073 -0.003989 0 0 255
0.003785 0.284856 0.363697 -0.999960 0.008073 -0.003989 0 0 255
0.005336 0.415370 0.239035 -0.999960 0.008073 -0.003989 0 0 255
0.005336 0.415370 0.239035 0.999960 -0.008071 0.003979 0 0 255
0.007196 0.444816 -0.168762 0.999960 -0.008071 0.003979 0 0 255
0.005983 0.457727 0.162454 0.999960 -0.008071 0.003979 0 0 255
0.005983 0.457727 0.162454 -0.999959 0.008077 -0.003977 0 0 255
0.007128 0.475859 -0.088666 -0.999959 0.008077 -0.003977 0 0 255
-0.001110 -0.335852 0.333976 -0.999959 0.008077 -0.003977 0 0 255
-0.001110 -0.335852 0.333976 0.999959 -0.008077 0.003979 0 0 255
0.006837 0.333141 -0.305022 0.999959 -0.008077 0.003979 0 0 255
0.005983 0.457727 0.162454 0.999959 -0.008077 0.003979 0 0 255
0.005872 0.170543 -0.392640 -0.999960 0.008076 -0.003983 0 0 255
0.003632 -0.113480 -0.406241 -0.999960 0.008076 -0.003983 0 0 255
0.002785 -0.204426 -0.378035 -0.999960 0.008076 -0.003983 0 0 255
0.001942 -0.287567 -0.334744 -0.999960 0.008078 -0.003976 0 0 255
0.001133 -0.359710 -0.278033 -0.999960 0.008078 -0.003976 0 0 255
-0.000255 -0.460439 -0.133500 -0.999960 0.008078 -0.003976 0 0 255
-0.000255 -0.460439 -0.133500 -0.999960 0.008081 -0.003983 0 0 255
-0.001170 -0.491275 0.033561 -0.999960 0.008081 -0.003983 0 0 255
-0.000145 -0.173254 0.421593 -0.999960 0.008081 -0.003983 0 0 255
-0.001469 -0.447527 0.197717 0.999936 -0.009664 0.005926 0 0 255
0.009152 0.475843 -0.088659 0.999936 -0.009664 0.005926 0 0 255
-0.000145 -0.173254 0.421593 0.999936 -0.009664 0.005926 0 0 255
-0.000145 -0.173254 0.421593 -0.999960 0.008076 -0.003980 0 0 255
0.002094 0.110769 0.435194 -0.999960 0.008076 -0.003980 0 0 255
0.002941 0.201715 0.406987 -0.999960 0.008076 -0.003980 0 0 255
0.002941 0.201715 0.406987 -0.999959 0.008076 -0.003986 0 0 255
0.005336 0.415370 0.239035 -0.999959 0.008076 -0.003986 0 0 255
-0.000145 -0.173254 0.421593 -0.999959 0.008076 -0.003986 0 0 255
0.005983 0.457727 0.162454 -0.999959 0.008075 -0.003978 0 0 255
0.006837 0.333141 -0.305022 -0.999959 0.008075 -0.003978 0 0 255
0.005872 0.170543 -0.392640 -0.999959 0.008075 -0.003978 0 0 255
0.005872 0.170543 -0.392640 -0.999959 0.008076 -0.003978 0 0 255
0.002785 -0.204426 -0.378035 -0.999959 0.008076 -0.003978 0 0 255
-0.000255 -0.460439 -0.133500 -0.999959 0.008076 -0.003978 0 0 255
-0.001170 -0.491275 0.033561 -0.999960 0.008074 -0.003978 0 0 255
-0.001469 -0.447527 0.197717 -0.999960 0.008074 -0.003978 0 0 255
-0.000145 -0.173254 0.421593 -0.999960 0.008074 -0.003978 0 0 255
-0.000145 -0.173254 0.421593 -0.999959 0.008080 -0.003974 0 0 255
0.005336 0.415370 0.239035 -0.999959 0.008080 -0.003974 0 0 255
0.005983 0.457727 0.162454 -0.999959 0.008080 -0.003974 0 0 255
0.005983 0.457727 0.162454 -0.999959 0.008077 -0.003980 0 0 255
0.005872 0.170543 -0.392640 -0.999959 0.008077 -0.003980 0 0 255
-0.000145 -0.173254 0.421593 -0.999959 0.008077 -0.003980 0 0 255
0.009219 0.444800 -0.168755 0.979295 0.196047 -0.050459 0 0 255
0.007128 0.475859 -0.088666 0.979295 0.196047 -0.050459 0 0 255
0.008919 0.488548 -0.004599 0.979295 0.196047 -0.050459 0 0 255
0.007196 0.444816 -0.168762 0.000000 0.000000 0.000000 0 0 255
0.009152 0.475843 -0.088659 0.000000 0.000000 0.000000 0 0 255
0.009152 0.475843 -0.088659 0.000000 0.000000 0.000000 0 0 255
0.008919 0.488548 -0.004599 0.000000 0.000000 0.000000 0 0 255
0.008533 0.482425 0.080194 0.000000 0.000000 0.000000 0 0 255
0.008533 0.482425 0.080194 0.000000 0.000000 0.000000 0 0 255
0.007359 0.415354 0.239043 0.000000 0.000000 0.000000 0 0 255
0.007359 0.415354 0.239043 0.000000 0.000000 0.000000 0 0 255
0.005808 0.284840 0.363705 0.000000 0.000000 0.000000 0 0 255
0.004965 0.201698 0.406995 0.999959 -0.008075 0.004000 0 0 255
0.003300 0.015499 0.447241 0.999959 -0.008075 0.004000 0 0 255
0.002544 -0.080405 0.442648 0.999959 -0.008075 0.004000 0 0 255
0.002544 -0.080405 0.442648 0.999960 -0.008079 0.003970 0 0 255
0.001878 -0.173270 0.421602 0.999960 -0.008079 0.003970 0 0 255
0.004965 0.201698 0.406995 0.999960 -0.008079 0.003970 0 0 255
0.001327 -0.259530 0.384910 0.999959 -0.008076 0.003980 0 0 255
0.000913 -0.335869 0.333984 0.999959 -0.008076 0.003980 0 0 255
0.000652 -0.399353 0.270778 0.999959 -0.008076 0.003980 0 0 255
0.000553 -0.447544 0.197725 0.000000 0.000000 0.000000 0 0 255
0.000622 -0.478588 0.117628 0.000000 0.000000 0.000000 0 0 255
0.000622 -0.478588 0.117628 0.000000 0.000000 0.000000 0 0 255
0.000854 -0.491292 0.033569 0.999960 -0.008035 0.003982 0 0 255
0.001241 -0.485169 -0.051224 0.999960 -0.008035 0.003982 0 0 255
0.000622 -0.478588 0.117628 0.999960 -0.008035 0.003982 0 0 255
0.001241 -0.485169 -0.051224 0.999959 -0.008083 0.003974 0 0 255
0.001768 -0.460456 -0.133492 0.999959 -0.008083 0.003974 0 0 255
0.002415 -0.418098 -0.210074 0.999959 -0.008083 0.003974 0 0 255
0.003156 -0.359726 -0.278025 0.999959 -0.008083 0.003969 0 0 255
0.003964 -0.287584 -0.334736 0.999959 -0.008083 0.003969 0 0 255
0.004808 -0.204443 -0.378026 0.999959 -0.008083 0.003969 0 0 255
0.004808 -0.204443 -0.378026 0.999960 -0.008080 0.003960 0 0 255
0.006472 -0.018242 -0.418271 0.999960 -0.008080 0.003960 0 0 255
0.007229 0.077661 -0.413679 0.999960 -0.008080 0.003960 0 0 255
0.007229 0.077661 -0.413679 0.999959 -0.008077 0.004007 0 0 255
0.007895 0.170526 -0.392633 0.999959 -0.008077 0.004007 0 0 255
0.005655 -0.113496 -0.406232 0.999959 -0.008077 0.004007 0 0 255
0.005655 -0.113496 -0.406232 0.999959 -0.008078 0.003987 0 0 255
0.008446 0.256787 -0.355940 0.999959 -0.008078 0.003987 0 0 255
0.008859 0.333125 -0.305014 0.999959 -0.008078 0.003987 0 0 255
0.008859 0.333125 -0.305014 0.999959 -0.008143 0.004034 0 0 255
0.009121 0.396609 -0.241809 0.999959 -0.008143 0.004034 0 0 255
0.009219 0.444800 -0.168755 0.999959 -0.008143 0.004034 0 0 255
0.009219 0.444800 -0.168755 -0.999959 0.008077 -0.003978 0 0 255
0.000913 -0.335869 0.333984 -0.999959 0.008077 -0.003978 0 0 255
0.008919 0.488548 -0.004599 -0.999959 0.008077 -0.003978 0 0 255
0.000652 -0.399353 0.270778 0.999959 -0.008077 0.003979 0 0 255
0.008859 0.333125 -0.305014 0.999959 -0.008077 0.003979 0 0 255
0.008919 0.488548 -0.004599 0.999959 -0.008077 0.003979 0 0 255
0.008919 0.488548 -0.004599 0.999959 -0.008079 0.003979 0 0 255
0.008533 0.482425 0.080194 0.999959 -0.008079 0.003979 0 0 255
0.004117 0.110752 0.435202 0.999959 -0.008079 0.003979 0 0 255
0.004965 0.201698 0.406995 -0.999959 0.008077 -0.004014 0 0 255
0.001878 -0.173270 0.421602 -0.999959 0.008077 -0.004014 0 0 255
0.004117 0.110752 0.435202 -0.999959 0.008077 -0.004014 0 0 255
0.004117 0.110752 0.435202 0.999960 -0.008075 0.003977 0 0 255
0.000652 -0.399353 0.270778 0.999960 -0.008075 0.003977 0 0 255
0.000553 -0.447544 0.197725 0.999960 -0.008075 0.003977 0 0 255
0.009121 0.396609 -0.241809 0.999959 -0.008077 0.003979 0 0 255
0.009152 0.475843 -0.088659 0.999959 -0.008077 0.003979 0 0 255
0.001241 -0.485169 -0.051224 0.999959 -0.008077 0.003979 0 0 255
0.000622 -0.478588 0.117628 0.999959 -0.008077 0.003980 0 0 255
0.003156 -0.359726 -0.278025 0.999959 -0.008077 0.003980 0 0 255
0.005655 -0.113496 -0.406232 0.999959 -0.008077 0.003980 0 0 255
0.004808 -0.204443 -0.378026 -0.999960 0.008078 -0.003976 0 0 255
0.007229 0.077661 -0.413679 -0.999960 0.008078 -0.003976 0 0 255
0.005655 -0.113496 -0.406232 -0.999960 0.008078 -0.003976 0 0 255
0.005655 -0.113496 -0.406232 0.999959 -0.008076 0.003978 0 0 255
0.008859 0.333125 -0.305014 0.999959 -0.008076 0.003978 0 0 255
0.008919 0.488548 -0.004599 0.999959 -0.008076 0.003978 0 0 255
0.009152 0.475843 -0.088659 0.000000 0.000000 0.000000 0 0 255
0.009152 0.475843 -0.088659 0.000000 0.000000 0.000000 0 0 255
0.009152 0.475843 -0.088659 0.000000 0.000000 0.000000 0 0 255
0.008533 0.482425 0.080194 0.999959 -0.008093 0.003964 0 0 255
0.004965 0.201698 0.406995 0.999959 -0.008093 0.003964 0 0 255
0.004117 0.110752 0.435202 0.999959 -0.008093 0.003964 0 0 255
0.000553 -0.447544 0.197725 0.999959 -0.008076 0.003980 0 0 255
0.003156 -0.359726 -0.278025 0.999959 -0.008078 0.003978 0 0 255
0.004808 -0.204443 -0.378026 0.999959 -0.008078 0.003978 0 0 255
0.005655 -0.113496 -0.406232 0.999959 -0.008078 0.003978 0 0 255
0.008859 0.333125 -0.305014 0.999959 -0.008074 0.003978 0 0 255
0.009219 0.444800 -0.168755 0.999959 -0.008074 0.003978 0 0 255
0.008919 0.488548 -0.004599 0.999959 -0.008074 0.003978 0 0 255
0.008919 0.488548 -0.004599 0.999959 -0.008077 0.003980 0 0 255
0.004117 0.110752 0.435202 0.999959 -0.008077 0.003980 0 0 255
3 0 1 2
3 3 4 5
3 6 7 8
3 9 10 11
3 12 13 14
3 15 16 17
3 18 19 20
3 21 22 23
3 24 25 26
3 27 28 29
3 30 31 32
3 33 34 35
3 36 37 38
3 39 40 41
3 42 43 44
3 45 46 47
3 48 49 50
3 51 52 53
3 54 55 56
3 57 58 59
3 60 61 62
3 63 64 65
3 66 67 68
3 69 70 71
3 72 73 74
3 75 76 77
3 78 79 80
3 81 82 83
3 84 85 86
3 87 88 89
3 90 91 92
3 93 94 95
3 96 97 98
3 99 100 101
3 102 103 104
3 105 106 107
3 108 109 110
3 111 112 113
3 114 115 116
3 117 118 119
3 120 121 122
3 123 124 125
3 126 127 128
3 129 130 131
3 132 133 134
3 135 136 137
3 138 139 140
3 141 142 143
3 144 145 146
3 147 148 149
3 150 151 152
3 153 154 155
3 156 157 158
3 159 160 161
3 162 163 164
3 165 166 167
3 168 169 170
3 171 172 173
3 174 72 74
3 175 176 177
3 178 179 180
3 181 182 183
3 184 185 186
3 187 188 189
3 190 191 192
3 193 194 195
3 196 197 198
3 199 200 201
3 202 203 204
3 205 206 207
3 208 209 210
3 211 212 213
3 214 215 216
3 217 218 219
3 220 221 222
3 223 224 225
3 226 227 228
3 229 230 231
3 232 233 234
3 235 236 237
3 238 239 240
3 241 242 243
3 244 245 246
3 247 248 249
3 250 251 252
3 253 254 255
3 256 257 258
3 259 260 261
3 262 263 264
3 265 266 267
3 268 269 270
3 271 272 273
3 274 275 276
3 277 278 279
3 280 281 282
3 283 284 285
3 286 287 288
3 289 290 291
3 292 293 294
3 101 295 296
3 296 297 101
3 298 299 300
3 301 302 303
3 304 305 306
3 307 308 309
3 310 311 312
3 313 314 315
3 316 317 318
3 319 320 321
3 322 323 324
3 325 326 327
3 328 329 330
3 331 332 333
3 334 335 336
3 337 338 339
3 340 341 342
3 343 344 345
3 346 347 348
3 349 350 351
3 352 353 354
3 101 355 99
3 356 357 358
3 359 360 361
3 362 363 342
