ply
format ascii 1.0
comment Created by Blender 2.76 (sub 0) - www.blender.org, source file: ''
element vertex 242
property float x
property float y
property float z
property float nx
property float ny
property float nz
property uchar red
property uchar green
property uchar blue
element face 124
property list uchar uint vertex_indices
end_header
-0.099991 0.478071 0.014623 -0.217233 0.969872 0.110264 0 0 255
-0.106277 0.467105 0.098693 -0.217233 0.969872 0.110264 0 0 255
-0.104308 0.467523 0.098895 -0.217233 0.969872 0.110264 0 0 255
-0.106277 0.467105 0.098693 -0.228129 0.918427 0.323185 0 0 255
-0.108408 0.438129 0.179532 -0.228129 0.918427 0.323185 0 0 255
-0.106439 0.438547 0.179734 -0.228129 0.918427 0.323185 0 0 255
-0.108408 0.438129 0.179532 -0.228210 0.826167 0.515139 0 0 255
-0.106302 0.392257 0.254034 -0.228210 0.826167 0.515139 0 0 255
-0.104333 0.392675 0.254235 -0.228210 0.826167 0.515139 0 0 255
-0.106302 0.392257 0.254034 -0.218570 0.702520 0.677268 0 0 255
-0.100041 0.331251 0.319335 -0.218570 0.702520 0.677268 0 0 255
-0.098072 0.331669 0.319537 -0.218570 0.702520 0.677268 0 0 255
-0.100041 0.331251 0.319335 -0.200896 0.557344 0.805610 0 0 255
-0.089864 0.257456 0.372926 -0.200896 0.557344 0.805610 0 0 255
-0.087895 0.257874 0.373128 -0.200896 0.557344 0.805610 0 0 255
-0.089864 0.257456 0.372926 -0.176898 0.398897 0.899771 0 0 255
-0.076163 0.173708 0.412748 -0.176898 0.398897 0.899771 0 0 255
-0.074193 0.174126 0.412950 -0.176898 0.398897 0.899771 0 0 255
-0.076163 0.173708 0.412748 -0.147993 0.233162 0.961110 0 0 255
-0.059464 0.083224 0.437271 -0.147993 0.233162 0.961110 0 0 255
-0.057495 0.083642 0.437472 -0.147993 0.233162 0.961110 0 0 255
-0.059464 0.083224 0.437271 -0.115198 0.064143 0.991270 0 0 255
-0.040409 -0.010517 0.445551 -0.115198 0.064143 0.991270 0 0 255
-0.038440 -0.010098 0.445753 -0.115198 0.064143 0.991270 0 0 255
-0.040409 -0.010517 0.445551 -0.079196 -0.105417 0.991269 0 0 255
-0.019730 -0.103913 0.437271 -0.079196 -0.105417 0.991269 0 0 255
-0.017761 -0.103495 0.437472 -0.079196 -0.105417 0.991269 0 0 255
-0.019730 -0.103913 0.437271 -0.040485 -0.273180 0.961111 0 0 255
0.001777 -0.193375 0.412748 -0.040485 -0.273180 0.961111 0 0 255
0.003746 -0.192957 0.412950 -0.040485 -0.273180 0.961111 0 0 255
0.001777 -0.193375 0.412748 0.000451 -0.436361 0.899772 0 0 255
0.023287 -0.275465 0.372926 0.000451 -0.436361 0.899772 0 0 255
0.025256 -0.275047 0.373128 0.000451 -0.436361 0.899772 0 0 255
0.023287 -0.275465 0.372926 0.042911 -0.590888 0.805611 0 0 255
0.043973 -0.347029 0.319335 0.042911 -0.590888 0.805611 0 0 255
0.045942 -0.346611 0.319537 0.042911 -0.590888 0.805611 0 0 255
0.043973 -0.347029 0.319335 0.085753 -0.730720 0.677270 0 0 255
0.063040 -0.405316 0.254034 0.085753 -0.730720 0.677270 0 0 255
0.065009 -0.404898 0.254235 0.085753 -0.730720 0.677270 0 0 255
0.063040 -0.405316 0.254034 0.127195 -0.847615 0.515141 0 0 255
0.079755 -0.448087 0.179532 0.127195 -0.847615 0.515141 0 0 255
0.081724 -0.447669 0.179734 0.127195 -0.847615 0.515141 0 0 255
0.079755 -0.448087 0.179532 0.164753 -0.931883 0.323187 0 0 255
0.093476 -0.473697 0.098693 0.164753 -0.931883 0.323187 0 0 255
0.095445 -0.473279 0.098894 0.164753 -0.931883 0.323187 0 0 255
0.093476 -0.473697 0.098693 0.195611 -0.974463 0.110266 0 0 255
0.103675 -0.481162 0.014623 0.195611 -0.974463 0.110266 0 0 255
0.105645 -0.480744 0.014825 0.195611 -0.974463 0.110266 0 0 255
0.103675 -0.481162 0.014623 0.217233 -0.969872 -0.110265 0 0 255
0.109961 -0.470196 -0.069447 0.217233 -0.969872 -0.110265 0 0 255
0.111931 -0.469778 -0.069245 0.217233 -0.969872 -0.110265 0 0 255
0.109961 -0.470196 -0.069447 0.228129 -0.918427 -0.323186 0 0 255
0.112093 -0.441221 -0.150286 0.228129 -0.918427 -0.323186 0 0 255
0.114062 -0.440803 -0.150084 0.228129 -0.918427 -0.323186 0 0 255
0.112093 -0.441221 -0.150286 0.228210 -0.826167 -0.515139 0 0 255
0.109987 -0.395348 -0.224788 0.228210 -0.826167 -0.515139 0 0 255
0.111956 -0.394930 -0.224586 0.228210 -0.826167 -0.515139 0 0 255
0.109987 -0.395348 -0.224788 0.218570 -0.702520 -0.677269 0 0 255
0.103725 -0.334342 -0.290089 0.218570 -0.702520 -0.677269 0 0 255
0.105694 -0.333924 -0.289887 0.218570 -0.702520 -0.677269 0 0 255
0.103725 -0.334342 -0.290089 0.200896 -0.557344 -0.805611 0 0 255
0.093548 -0.260547 -0.343681 0.200896 -0.557344 -0.805611 0 0 255
0.095517 -0.260129 -0.343479 0.200896 -0.557344 -0.805611 0 0 255
0.093548 -0.260547 -0.343681 0.176898 -0.398896 -0.899771 0 0 255
0.079847 -0.176799 -0.383503 0.176898 -0.398896 -0.899771 0 0 255
0.081816 -0.176381 -0.383301 0.176898 -0.398896 -0.899771 0 0 255
0.079847 -0.176799 -0.383503 0.147993 -0.233161 -0.961111 0 0 255
0.063148 -0.086315 -0.408025 0.147993 -0.233161 -0.961111 0 0 255
0.065117 -0.085897 -0.407823 0.147993 -0.233161 -0.961111 0 0 255
0.063148 -0.086315 -0.408025 0.115197 -0.064142 -0.991270 0 0 255
0.044093 0.007426 -0.416305 0.115197 -0.064142 -0.991270 0 0 255
0.046062 0.007844 -0.416103 0.115197 -0.064142 -0.991270 0 0 255
0.044093 0.007426 -0.416305 0.079196 0.105418 -0.991269 0 0 255
0.023415 0.100822 -0.408025 0.079196 0.105418 -0.991269 0 0 255
0.025384 0.101240 -0.407823 0.079196 0.105418 -0.991269 0 0 255
0.023415 0.100822 -0.408025 0.040485 0.273181 -0.961110 0 0 255
0.001907 0.190284 -0.383502 0.040485 0.273181 -0.961110 0 0 255
0.003876 0.190702 -0.383301 0.040485 0.273181 -0.961110 0 0 255
0.001907 0.190284 -0.383502 -0.000451 0.436361 -0.899771 0 0 255
-0.019603 0.272374 -0.343680 -0.000451 0.436361 -0.899771 0 0 255
-0.017634 0.272793 -0.343478 -0.000451 0.436361 -0.899771 0 0 255
-0.019603 0.272374 -0.343680 -0.042911 0.590889 -0.805611 0 0 255
-0.040289 0.343938 -0.290089 -0.042911 0.590889 -0.805611 0 0 255
-0.038320 0.344356 -0.289887 -0.042911 0.590889 -0.805611 0 0 255
-0.040289 0.343938 -0.290089 -0.085763 0.730719 -0.677270 0 0 255
-0.059356 0.402225 -0.224787 -0.085763 0.730719 -0.677270 0 0 255
-0.057386 0.402643 -0.224586 -0.085763 0.730719 -0.677270 0 0 255
-0.059356 0.402225 -0.224787 -0.127188 0.847617 -0.515139 0 0 255
-0.076071 0.444996 -0.150285 -0.127188 0.847617 -0.515139 0 0 255
-0.074102 0.445414 -0.150084 -0.127188 0.847617 -0.515139 0 0 255
0.112093 -0.441221 -0.150286 -0.973317 -0.206657 -0.099733 0 0 255
0.001777 -0.193375 0.412748 -0.973317 -0.206657 -0.099733 0 0 255
0.001907 0.190284 -0.383502 -0.973317 -0.206657 -0.099733 0 0 255
-0.089792 0.470605 -0.069446 -0.195611 0.974463 -0.110265 0 0 255
-0.099991 0.478071 0.014623 -0.195611 0.974463 -0.110265 0 0 255
-0.098022 0.478489 0.014825 -0.195611 0.974463 -0.110265 0 0 255
-0.076071 0.444996 -0.150285 -0.164753 0.931884 -0.323186 0 0 255
-0.089792 0.470605 -0.069446 -0.164753 0.931884 -0.323186 0 0 255
-0.087822 0.471024 -0.069245 -0.164753 0.931884 -0.323186 0 0 255
0.095445 -0.473279 0.098894 0.973317 0.206657 0.099733 0 0 255
0.065117 -0.085897 -0.407823 0.973317 0.206657 0.099733 0 0 255
-0.057495 0.083642 0.437472 0.973317 0.206657 0.099733 0 0 255
-0.098022 0.478489 0.014825 -0.217233 0.969872 0.110264 0 0 255
-0.104308 0.467523 0.098895 -0.228127 0.918428 0.323185 0 0 255
-0.106277 0.467105 0.098693 -0.228127 0.918428 0.323185 0 0 255
-0.106439 0.438547 0.179734 -0.228127 0.918428 0.323185 0 0 255
-0.106439 0.438547 0.179734 -0.228210 0.826167 0.515139 0 0 255
-0.104333 0.392675 0.254235 -0.218570 0.702520 0.677268 0 0 255
-0.098072 0.331669 0.319537 -0.200896 0.557344 0.805610 0 0 255
-0.087895 0.257874 0.373128 -0.176901 0.398896 0.899771 0 0 255
-0.089864 0.257456 0.372926 -0.176901 0.398896 0.899771 0 0 255
-0.074193 0.174126 0.412950 -0.176901 0.398896 0.899771 0 0 255
-0.074193 0.174126 0.412950 -0.147994 0.233162 0.961110 0 0 255
-0.076163 0.173708 0.412748 -0.147994 0.233162 0.961110 0 0 255
-0.057495 0.083642 0.437472 -0.147994 0.233162 0.961110 0 0 255
-0.057495 0.083642 0.437472 -0.115198 0.064143 0.991269 0 0 255
-0.059464 0.083224 0.437271 -0.115198 0.064143 0.991269 0 0 255
-0.038440 -0.010098 0.445753 -0.115198 0.064143 0.991269 0 0 255
-0.038440 -0.010098 0.445753 -0.079196 -0.105417 0.991270 0 0 255
-0.040409 -0.010517 0.445551 -0.079196 -0.105417 0.991270 0 0 255
-0.017761 -0.103495 0.437472 -0.079196 -0.105417 0.991270 0 0 255
-0.017761 -0.103495 0.437472 -0.040486 -0.273180 0.961110 0 0 255
-0.019730 -0.103913 0.437271 -0.040486 -0.273180 0.961110 0 0 255
0.003746 -0.192957 0.412950 -0.040486 -0.273180 0.961110 0 0 255
0.003746 -0.192957 0.412950 0.000448 -0.436361 0.899771 0 0 255
0.001777 -0.193375 0.412748 0.000448 -0.436361 0.899771 0 0 255
0.025256 -0.275047 0.373128 0.000448 -0.436361 0.899771 0 0 255
0.025256 -0.275047 0.373128 0.042911 -0.590888 0.805611 0 0 255
0.045942 -0.346611 0.319537 0.085753 -0.730720 0.677270 0 0 255
0.065009 -0.404898 0.254235 0.127188 -0.847617 0.515140 0 0 255
0.063040 -0.405316 0.254034 0.127188 -0.847617 0.515140 0 0 255
0.081724 -0.447669 0.179734 0.127188 -0.847617 0.515140 0 0 255
0.081724 -0.447669 0.179734 0.164755 -0.931883 0.323187 0 0 255
0.079755 -0.448087 0.179532 0.164755 -0.931883 0.323187 0 0 255
0.095445 -0.473279 0.098894 0.164755 -0.931883 0.323187 0 0 255
0.095445 -0.473279 0.098894 0.195611 -0.974463 0.110266 0 0 255
0.105645 -0.480744 0.014825 0.217233 -0.969872 -0.110265 0 0 255
0.111931 -0.469778 -0.069245 0.228127 -0.918428 -0.323186 0 0 255
0.109961 -0.470196 -0.069447 0.228127 -0.918428 -0.323186 0 0 255
0.114062 -0.440803 -0.150084 0.228127 -0.918428 -0.323186 0 0 255
0.114062 -0.440803 -0.150084 0.228210 -0.826167 -0.515139 0 0 255
0.111956 -0.394930 -0.224586 0.218570 -0.702520 -0.677269 0 0 255
0.105694 -0.333924 -0.289887 0.200896 -0.557344 -0.805611 0 0 255
0.095517 -0.260129 -0.343479 0.176901 -0.398896 -0.899771 0 0 255
0.093548 -0.260547 -0.343681 0.176901 -0.398896 -0.899771 0 0 255
0.081816 -0.176381 -0.383301 0.176901 -0.398896 -0.899771 0 0 255
0.081816 -0.176381 -0.383301 0.147994 -0.233161 -0.961111 0 0 255
0.079847 -0.176799 -0.383503 0.147994 -0.233161 -0.961111 0 0 255
0.065117 -0.085897 -0.407823 0.147994 -0.233161 -0.961111 0 0 255
0.065117 -0.085897 -0.407823 0.115197 -0.064142 -0.991270 0 0 255
0.046062 0.007844 -0.416103 0.079196 0.105418 -0.991269 0 0 255
0.025384 0.101240 -0.407823 0.040486 0.273182 -0.961110 0 0 255
0.023415 0.100822 -0.408025 0.040486 0.273182 -0.961110 0 0 255
0.003876 0.190702 -0.383301 0.040486 0.273182 -0.961110 0 0 255
0.003876 0.190702 -0.383301 -0.000448 0.436362 -0.899771 0 0 255
0.001907 0.190284 -0.383502 -0.000448 0.436362 -0.899771 0 0 255
-0.017634 0.272793 -0.343478 -0.000448 0.436362 -0.899771 0 0 255
-0.017634 0.272793 -0.343478 -0.042911 0.590889 -0.805611 0 0 255
-0.038320 0.344356 -0.289887 -0.085754 0.730721 -0.677269 0 0 255
-0.040289 0.343938 -0.290089 -0.085754 0.730721 -0.677269 0 0 255
-0.057386 0.402643 -0.224586 -0.085754 0.730721 -0.677269 0 0 255
-0.057386 0.402643 -0.224586 -0.127196 0.847616 -0.515140 0 0 255
-0.059356 0.402225 -0.224787 -0.127196 0.847616 -0.515140 0 0 255
-0.074102 0.445414 -0.150084 -0.127196 0.847616 -0.515140 0 0 255
-0.108408 0.438129 0.179532 -0.973317 -0.206656 -0.099733 0 0 255
-0.106277 0.467105 0.098693 -0.973317 -0.206656 -0.099733 0 0 255
-0.099991 0.478071 0.014623 -0.973317 -0.206656 -0.099733 0 0 255
-0.099991 0.478071 0.014623 -0.973317 -0.206657 -0.099733 0 0 255
-0.089792 0.470605 -0.069446 -0.973317 -0.206657 -0.099733 0 0 255
-0.108408 0.438129 0.179532 -0.973317 -0.206657 -0.099733 0 0 255
-0.076071 0.444996 -0.150285 -0.973317 -0.206656 -0.099733 0 0 255
-0.059356 0.402225 -0.224787 -0.973317 -0.206656 -0.099733 0 0 255
-0.040289 0.343938 -0.290089 -0.973317 -0.206656 -0.099733 0 0 255
-0.040289 0.343938 -0.290089 -0.973317 -0.206657 -0.099733 0 0 255
-0.019603 0.272374 -0.343680 -0.973317 -0.206657 -0.099733 0 0 255
0.023415 0.100822 -0.408025 -0.973317 -0.206657 -0.099733 0 0 255
0.044093 0.007426 -0.416305 -0.973317 -0.206657 -0.099733 0 0 255
0.063148 -0.086315 -0.408025 -0.973317 -0.206657 -0.099733 0 0 255
0.079847 -0.176799 -0.383503 -0.973317 -0.206657 -0.099733 0 0 255
0.093548 -0.260547 -0.343681 -0.973317 -0.206657 -0.099733 0 0 255
0.103725 -0.334342 -0.290089 -0.973317 -0.206657 -0.099733 0 0 255
0.109987 -0.395348 -0.224788 -0.973317 -0.206657 -0.099733 0 0 255
0.109961 -0.470196 -0.069447 -0.973317 -0.206657 -0.099733 0 0 255
0.103675 -0.481162 0.014623 -0.973317 -0.206657 -0.099733 0 0 255
0.093476 -0.473697 0.098693 -0.973317 -0.206657 -0.099733 0 0 255
0.079755 -0.448087 0.179532 -0.973317 -0.206657 -0.099733 0 0 255
0.079755 -0.448087 0.179532 -0.973317 -0.206656 -0.099733 0 0 255
0.063040 -0.405316 0.254034 -0.973317 -0.206656 -0.099733 0 0 255
0.043973 -0.347029 0.319335 -0.973317 -0.206656 -0.099733 0 0 255
0.023287 -0.275465 0.372926 -0.973317 -0.206656 -0.099733 0 0 255
0.001777 -0.193375 0.412748 -0.973317 -0.206656 -0.099733 0 0 255
-0.019730 -0.103913 0.437271 -0.973317 -0.206657 -0.099733 0 0 255
-0.040409 -0.010517 0.445551 -0.973317 -0.206657 -0.099733 0 0 255
-0.059464 0.083224 0.437271 -0.973317 -0.206657 -0.099733 0 0 255
-0.076163 0.173708 0.412748 -0.973317 -0.206657 -0.099733 0 0 255
-0.089864 0.257456 0.372926 -0.973317 -0.206657 -0.099733 0 0 255
-0.106302 0.392257 0.254034 -0.973317 -0.206657 -0.099733 0 0 255
-0.076071 0.444996 -0.150285 -0.973317 -0.206657 -0.099733 0 0 255
0.043973 -0.347029 0.319335 -0.973317 -0.206657 -0.099733 0 0 255
-0.087822 0.471024 -0.069245 -0.195611 0.974463 -0.110265 0 0 255
-0.074102 0.445414 -0.150084 -0.164751 0.931884 -0.323185 0 0 255
-0.076071 0.444996 -0.150285 -0.164751 0.931884 -0.323185 0 0 255
-0.087822 0.471024 -0.069245 -0.164751 0.931884 -0.323185 0 0 255
-0.087822 0.471024 -0.069245 0.973317 0.206657 0.099733 0 0 255
-0.098022 0.478489 0.014825 0.973317 0.206657 0.099733 0 0 255
-0.104308 0.467523 0.098895 0.973317 0.206657 0.099733 0 0 255
-0.104308 0.467523 0.098895 0.973317 0.206656 0.099733 0 0 255
-0.104333 0.392675 0.254235 0.973317 0.206656 0.099733 0 0 255
-0.104333 0.392675 0.254235 0.973317 0.206657 0.099733 0 0 255
-0.087895 0.257874 0.373128 0.973317 0.206657 0.099733 0 0 255
-0.074193 0.174126 0.412950 0.973317 0.206657 0.099733 0 0 255
-0.038440 -0.010098 0.445753 0.973317 0.206657 0.099733 0 0 255
-0.017761 -0.103495 0.437472 0.973317 0.206657 0.099733 0 0 255
0.003746 -0.192957 0.412950 0.973317 0.206657 0.099733 0 0 255
0.025256 -0.275047 0.373128 0.973317 0.206657 0.099733 0 0 255
0.045942 -0.346611 0.319537 0.973317 0.206657 0.099733 0 0 255
0.065009 -0.404898 0.254235 0.973317 0.206657 0.099733 0 0 255
0.081724 -0.447669 0.179734 0.973317 0.206657 0.099733 0 0 255
0.095445 -0.473279 0.098894 0.973317 0.206656 0.099733 0 0 255
0.105645 -0.480744 0.014825 0.973317 0.206656 0.099733 0 0 255
0.111931 -0.469778 -0.069245 0.973317 0.206656 0.099733 0 0 255
0.111931 -0.469778 -0.069245 0.973317 0.206657 0.099733 0 0 255
0.114062 -0.440803 -0.150084 0.973317 0.206657 0.099733 0 0 255
0.111956 -0.394930 -0.224586 0.973317 0.206657 0.099733 0 0 255
0.105694 -0.333924 -0.289887 0.973317 0.206657 0.099733 0 0 255
0.095517 -0.260129 -0.343479 0.973317 0.206657 0.099733 0 0 255
0.081816 -0.176381 -0.383301 0.973317 0.206657 0.099733 0 0 255
0.046062 0.007844 -0.416103 0.973317 0.206657 0.099733 0 0 255
0.025384 0.101240 -0.407823 0.973317 0.206657 0.099733 0 0 255
0.003876 0.190702 -0.383301 0.973317 0.206657 0.099733 0 0 255
-0.017634 0.272793 -0.343478 0.973317 0.206657 0.099733 0 0 255
-0.038320 0.344356 -0.289887 0.973317 0.206657 0.099733 0 0 255
-0.057386 0.402643 -0.224586 0.973317 0.206657 0.099733 0 0 255
-0.074102 0.445414 -0.150084 0.973317 0.206657 0.099733 0 0 255
0.045942 -0.346611 0.319537 0.973317 0.206656 0.099733 0 0 255
0.065009 -0.404898 0.254235 0.973317 0.206656 0.099733 0 0 255
-0.038320 0.344356 -0.289887 0.973317 0.206656 0.099733 0 0 255
-0.057386 0.402643 -0.224586 0.973317 0.206656 0.099733 0 0 255
-0.087822 0.471024 -0.069245 0.973317 0.206656 0.099733 0 0 255
-0.087822 0.471024 -0.069245 0.973317 0.206656 0.099733 0 0 255
-0.087822 0.471024 -0.069245 0.973317 0.206656 0.099733 0 0 255
-0.087822 0.471024 -0.069245 0.973317 0.206656 0.099733 0 0 255
3 0 1 2
3 3 4 5
3 6 7 8
3 9 10 11
3 12 13 14
3 15 16 17
3 18 19 20
3 21 22 23
3 24 25 26
3 27 28 29
3 30 31 32
3 33 34 35
3 36 37 38
3 39 40 41
3 42 43 44
3 45 46 47
3 48 49 50
3 51 52 53
3 54 55 56
3 57 58 59
3 60 61 62
3 63 64 65
3 66 67 68
3 69 70 71
3 72 73 74
3 75 76 77
3 78 79 80
3 81 82 83
3 84 85 86
3 87 88 89
3 90 91 92
3 93 94 95
3 96 97 98
3 99 100 101
3 102 0 2
3 103 104 105
3 106 6 8
3 107 9 11
3 108 12 14
3 109 110 111
3 112 113 114
3 115 116 117
3 118 119 120
3 121 122 123
3 124 125 126
3 127 33 35
3 128 36 38
3 129 130 131
3 132 133 134
3 135 45 47
3 136 48 50
3 137 138 139
3 140 54 56
3 141 57 59
3 142 60 62
3 143 144 145
3 146 147 148
3 149 69 71
3 150 72 74
3 151 152 153
3 154 155 156
3 157 81 83
3 158 159 160
3 161 162 163
3 164 165 166
3 167 168 169
3 170 171 172
3 173 174 92
3 92 175 176
3 176 177 92
3 178 179 90
3 180 181 90
3 90 182 183
3 183 184 185
3 186 187 188
3 188 189 190
3 91 191 192
3 192 193 91
3 194 195 196
3 196 197 169
3 169 168 198
3 198 173 169
3 92 177 178
3 179 180 90
3 90 183 91
3 185 199 91
3 91 193 194
3 194 196 91
3 169 173 92
3 92 178 90
3 183 185 91
3 91 196 169
3 169 92 91
3 200 93 95
3 201 202 203
3 204 205 206
3 207 208 209
3 210 211 212
3 212 213 210
3 101 214 215
3 215 216 101
3 217 218 99
3 219 220 99
3 221 222 223
3 224 225 226
3 226 227 228
3 228 229 100
3 100 230 231
3 231 232 233
3 233 234 204
3 235 236 204
3 204 206 101
3 210 213 101
3 101 216 217
3 237 238 221
3 99 224 100
3 226 228 100
3 100 231 204
3 239 240 241
3 206 210 101
3 101 217 99
3 224 226 100
3 231 233 204
3 204 101 100
