ply
format ascii 1.0
comment Created by Blender 2.76 (sub 0) - www.blender.org, source file: ''
element vertex 36
property float x
property float y
property float z
property float nx
property float ny
property float nz
property float s
property float t
property uchar red
property uchar green
property uchar blue
element face 12
property list uchar uint vertex_indices
end_header
2.284657 -1.231545 -0.233198 0.233552 0.437645 -0.868286 0.000000 0.000000 73 39 9
2.037205 -3.064215 -1.223485 0.233552 0.437645 -0.868286 1.000000 0.000000 73 39 9
-1.000000 -1.000000 -1.000000 0.233552 0.437645 -0.868286 1.000000 1.000000 73 39 9
-0.939156 0.031250 2.538280 0.507112 -0.163245 0.846279 0.000000 0.000000 73 39 9
-1.753839 -2.837645 2.473056 0.507112 -0.163245 0.846279 1.000000 0.000000 73 39 9
1.384709 -3.564102 0.452226 0.507112 -0.163245 0.846279 1.000000 1.000000 73 39 9
2.284657 -1.231545 -0.233198 0.589982 0.009616 0.807359 0.000000 0.000000 73 39 9
-0.204759 1.841980 1.549349 0.589982 0.009616 0.807359 1.000000 0.000000 73 39 9
1.384709 -3.564102 0.452226 0.589982 0.009616 0.807359 1.000000 1.000000 73 39 9
1.384709 -3.564102 0.452226 -0.483030 -0.726256 -0.489116 0.000000 0.000000 73 39 9
-1.753839 -2.837645 2.473056 -0.483030 -0.726256 -0.489116 1.000000 0.000000 73 39 9
-1.000000 -1.000000 -1.000000 -0.483030 -0.726256 -0.489116 1.000000 1.000000 73 39 9
-1.000000 -1.000000 -1.000000 -0.959654 0.273954 -0.063343 0.000000 0.000000 73 39 9
-1.753839 -2.837645 2.473056 -0.959654 0.273954 -0.063343 1.000000 0.000000 73 39 9
-0.939156 0.031250 2.538280 -0.959654 0.273954 -0.063343 1.000000 1.000000 73 39 9
-0.204759 1.841980 1.549349 0.575827 0.705755 -0.412714 0.000000 0.000000 73 39 9
2.284657 -1.231545 -0.233198 0.575827 0.705755 -0.412714 1.000000 0.000000 73 39 9
-1.000000 1.000000 -1.000000 0.575827 0.705755 -0.412714 1.000000 1.000000 73 39 9
-1.000000 1.000000 -1.000000 0.227337 -0.000000 -0.973816 0.000000 0.000000 73 39 9
2.284657 -1.231545 -0.233198 0.227337 -0.000000 -0.973816 1.000000 0.000000 73 39 9
-1.000000 -1.000000 -1.000000 0.227337 -0.000000 -0.973816 1.000000 1.000000 73 39 9
-0.204759 1.841980 1.549349 0.728719 0.076138 0.680568 0.000000 0.000000 73 39 9
-0.939156 0.031250 2.538280 0.728719 0.076138 0.680568 1.000000 0.000000 73 39 9
1.384709 -3.564102 0.452226 0.728719 0.076138 0.680568 1.000000 1.000000 73 39 9
2.037205 -3.064215 -1.223485 0.921013 -0.273979 0.276896 0.000000 0.000000 73 39 9
2.284657 -1.231545 -0.233198 0.921013 -0.273979 0.276896 1.000000 0.000000 73 39 9
1.384709 -3.564102 0.452226 0.921013 -0.273979 0.276896 1.000000 1.000000 73 39 9
2.037205 -3.064215 -1.223485 -0.529951 -0.733711 -0.425230 0.000000 0.000000 73 39 9
1.384709 -3.564102 0.452226 -0.529951 -0.733711 -0.425230 1.000000 0.000000 73 39 9
-1.000000 -1.000000 -1.000000 -0.529951 -0.733711 -0.425230 1.000000 1.000000 73 39 9
-1.000000 1.000000 -1.000000 -0.999852 0.000000 0.017193 0.000000 0.000000 73 39 9
-1.000000 -1.000000 -1.000000 -0.999852 0.000000 0.017193 1.000000 0.000000 73 39 9
-0.939156 0.031250 2.538280 -0.999852 0.000000 0.017193 1.000000 1.000000 73 39 9
-0.939156 0.031250 2.538280 -0.890583 0.434545 0.134289 0.000000 0.000000 73 39 9
-0.204759 1.841980 1.549349 -0.890583 0.434545 0.134289 1.000000 0.000000 73 39 9
-1.000000 1.000000 -1.000000 -0.890583 0.434545 0.134289 1.000000 1.000000 73 39 9
3 0 1 2
3 3 4 5
3 6 7 8
3 9 10 11
3 12 13 14
3 15 16 17
3 18 19 20
3 21 22 23
3 24 25 26
3 27 28 29
3 30 31 32
3 33 34 35
