ply
format ascii 1.0
comment Created by Blender 2.76 (sub 0) - www.blender.org, source file: ''
element vertex 445
property float x
property float y
property float z
property float nx
property float ny
property float nz
property float s
property float t
property uchar red
property uchar green
property uchar blue
element face 602
property list uchar uint vertex_indices
end_header
0.225108 1.441440 -0.362802 0.473952 0.749413 -0.462264 0.953125 0.681641 189 143 73
0.144530 1.704191 -0.113645 0.750511 0.620411 -0.227485 0.967285 0.566895 175 129 66
0.251875 1.492831 -0.106598 0.607379 0.776177 -0.169103 0.948730 0.592773 182 136 66
-1.001716 -1.302363 0.155293 -0.929991 -0.367534 0.000702 0.733887 0.012695 170 127 63
-0.767559 -1.035215 0.576196 -0.881924 0.186499 0.432875 0.833984 0.125488 170 127 63
-0.880480 -1.036061 0.154761 -0.982635 0.185522 -0.000275 0.733887 0.125488 170 127 63
-0.872551 -1.301400 0.637346 -0.810175 -0.378216 0.447798 0.833984 0.012695 170 127 64
-1.505646 0.519893 0.335933 -0.419355 0.545976 0.725242 0.725183 0.296185 170 127 63
-1.329052 0.576622 0.273129 0.229499 0.889187 0.395734 0.723971 0.296601 170 127 63
-1.469451 0.576622 0.273129 -0.229530 0.889187 0.395764 0.724502 0.296564 170 127 63
-1.637592 -0.195995 0.153082 -0.985717 -0.168218 0.000336 0.743364 0.269754 170 127 63
-1.518422 0.447967 0.358205 -0.493423 0.163030 0.854335 0.725821 0.295917 170 127 63
-1.637592 0.447555 0.151797 -0.986877 0.161321 -0.000305 0.726347 0.294793 170 127 63
-1.292857 0.519902 0.335934 0.419324 0.546037 0.725242 0.724375 0.296277 170 127 63
-1.258852 0.576379 0.151539 0.458937 0.888455 -0.001740 0.723611 0.296008 170 127 63
-1.399252 0.595838 0.151501 0.000000 0.999969 -0.001984 0.723435 0.297229 170 127 63
-1.539652 0.576379 0.151539 -0.459059 0.888394 -0.001770 0.724750 0.296060 170 127 63
-1.612041 0.519525 0.151653 -0.838710 0.544542 -0.001068 0.725572 0.295365 170 127 63
-1.518422 0.447142 -0.054611 -0.493423 0.159612 -0.854976 0.726078 0.293067 170 127 63
-1.505646 0.519157 -0.032627 -0.419355 0.543077 -0.727439 0.725300 0.294244 170 127 63
-1.469451 0.576136 0.029950 -0.229530 0.887600 -0.399304 0.724535 0.295465 170 127 63
-1.329052 0.576136 0.029950 0.229469 0.887631 -0.399274 0.723936 0.295358 170 127 63
-1.186463 0.519550 0.151653 0.838649 0.544633 -0.001068 0.723672 0.295148 170 127 63
-1.280082 0.447983 0.358205 0.493423 0.163060 0.854335 0.724747 0.296101 170 127 63
-1.518422 -0.195583 0.359491 -0.533128 -0.083071 0.841914 0.767620 0.287062 170 127 63
-1.593120 -0.315357 0.153321 -0.867916 -0.496658 -0.005188 0.752322 0.255941 170 127 63
-1.518422 -0.196408 -0.053326 -0.533128 -0.086428 -0.841578 0.719167 0.258438 170 127 63
-1.496452 -0.274648 -0.053170 -0.495682 -0.311380 -0.810755 0.721547 0.246221 170 127 63
-1.280082 -0.132584 -0.053453 0.136998 0.165349 -0.976653 0.649975 0.264957 170 127 63
-1.439027 -0.328422 -0.053062 -0.332926 -0.438307 -0.834864 0.720231 0.230552 170 127 63
-1.513193 -0.410253 0.153511 -0.630665 -0.776025 -0.004273 0.763163 0.238827 170 127 63
-1.496452 -0.273823 0.359647 -0.494156 -0.292642 0.818598 0.778371 0.278487 170 127 63
-1.280082 -0.131759 0.359363 0.136998 0.169256 0.975982 0.805445 0.361992 170 127 64
-1.160912 0.447601 0.151797 0.986877 0.161382 -0.000305 0.723562 0.294346 170 127 63
-1.292857 0.519166 -0.032627 0.419324 0.543107 -0.727409 0.724312 0.293898 170 127 63
-1.280082 0.447158 -0.054611 0.493423 0.159642 -0.854976 0.724641 0.292344 170 127 63
-1.439027 -0.327597 0.359754 -0.319376 -0.437239 0.840693 0.793742 0.271614 170 127 63
-1.160912 -0.013002 0.152717 0.670858 0.741569 -0.001465 0.687763 0.398511 170 127 63
-0.617606 -0.039717 0.030447 -0.008301 0.865047 -0.501602 0.999897 0.159760 182 139 69
-0.617606 -0.132584 -0.053453 0.000000 0.498245 -0.867000 0.999897 0.286627 177 132 67
-0.617606 -0.013002 0.152717 0.000000 0.999969 -0.001984 0.871588 0.065789 170 127 63
-0.617606 -0.039228 0.275093 -0.008301 0.867031 0.498154 0.723938 0.000103 127 95 47
-0.617606 -0.131759 0.359363 0.000000 0.501724 0.865017 0.609990 0.060412 170 127 63
-0.617606 -0.250853 0.397838 -0.006836 0.001984 0.999969 0.509426 0.140834 170 127 63
-1.374850 -0.365098 -0.052989 -0.158544 -0.548143 -0.821192 0.716843 0.211607 170 127 63
-1.411933 -0.465393 0.153621 -0.328806 -0.944365 -0.004608 0.777062 0.215641 170 127 63
-1.374850 -0.364274 0.359828 -0.170141 -0.533006 0.828791 0.812833 0.264405 157 117 58
-1.280082 -0.370099 0.359839 -0.044893 -0.504837 0.862026 0.849528 0.261365 185 136 68
-0.617606 -0.370099 0.359839 0.000000 -0.498245 0.867000 0.501884 0.270492 170 127 63
-0.617606 -0.462966 0.275939 -0.006836 -0.864986 0.501694 0.520493 0.397945 170 127 63
-1.280082 -0.489681 0.153669 -0.110355 -0.993866 -0.005188 0.803829 0.172048 170 127 63
-0.617606 -0.489681 0.153669 0.000000 -0.999969 0.001984 0.628207 0.476506 170 127 63
-0.617606 -0.463455 0.031294 -0.006836 -0.867000 -0.498245 0.750259 0.530918 170 127 63
-1.280082 -0.370924 -0.052977 -0.055757 -0.516556 -0.854396 0.701144 0.178336 56 38 15
-0.617606 -0.370924 -0.052977 0.000000 -0.501724 -0.865017 0.869396 0.481773 195 149 75
-0.617606 -0.251830 -0.091452 -0.006836 -0.001984 -0.999969 0.977341 0.409108 194 148 74
0.797323 -1.303326 -0.326754 0.810175 -0.380016 -0.446272 0.015274 0.012695 170 127 63
0.557363 -1.031696 -0.440225 0.698019 0.152745 -0.699545 0.065247 0.125488 170 127 66
0.692349 -1.036899 -0.266675 0.881924 0.184729 -0.433637 0.015274 0.125488 169 126 63
0.444438 -1.304031 -0.679639 0.460311 -0.391919 -0.796533 0.115234 0.012695 160 113 55
0.383843 -1.037517 -0.575190 0.491562 0.185797 -0.850765 0.115234 0.125488 197 146 73
0.180171 -1.032123 -0.657997 0.255867 0.152013 -0.954650 0.165161 0.125488 194 148 74
-0.037605 -1.304289 -0.808805 0.000000 -0.392163 -0.919858 0.215210 0.012695 194 148 74
-0.037605 -1.037740 -0.688120 -0.000488 0.185339 -0.982665 0.215210 0.125488 194 148 74
-0.255376 -1.032142 -0.658006 -0.255043 0.152379 -0.954833 0.264160 0.125488 195 149 75
-0.519665 -1.304031 -0.679639 -0.460311 -0.391919 -0.796533 0.313232 0.012695 185 136 68
-0.459035 -1.037512 -0.575203 -0.491592 0.185247 -0.850856 0.313232 0.125488 197 146 73
-0.632593 -1.031688 -0.440213 -0.698111 0.152196 -0.699576 0.363525 0.125488 172 128 66
-0.872550 -1.303326 -0.326754 -0.810175 -0.380016 -0.446272 0.413574 0.012695 170 127 63
-0.767558 -1.036904 -0.266693 -0.882015 0.184332 -0.433576 0.413574 0.125488 170 127 63
-0.880480 -1.036061 0.154761 -0.982635 0.185522 -0.000275 0.513672 0.125488 170 127 63
-1.001716 -1.302363 0.155293 -0.929991 -0.367534 0.000702 0.513672 0.012695 170 127 63
0.926489 -1.302363 0.155293 0.929960 -0.367565 0.000702 0.733887 0.012695 170 127 63
0.692349 -1.036899 -0.266675 0.881924 0.184729 -0.433637 0.833984 0.125488 169 126 63
0.805281 -1.036066 0.154761 0.982696 0.185186 -0.000427 0.733887 0.125488 170 127 63
0.797323 -1.303326 -0.326754 0.810175 -0.380016 -0.446272 0.833984 0.012695 170 127 63
-0.261562 -0.590769 0.995954 -0.255043 -0.081240 0.963500 0.162354 0.368652 194 148 74
-0.035580 -0.001071 1.080593 -0.000214 -0.094424 0.995514 0.215332 0.647461 170 127 63
-0.277938 0.005300 1.054974 -0.254494 -0.098819 0.961974 0.162354 0.650391 35 25 11
-0.034710 -0.603556 1.024451 0.001801 -0.079379 0.996826 0.215332 0.362305 41 28 12
-0.767559 -1.035215 0.576196 -0.881924 0.186499 0.432875 0.022308 0.126953 170 127 63
-0.632573 -1.029319 0.749724 -0.698019 0.155553 0.698935 0.065857 0.126953 171 127 66
-0.658250 -0.526253 0.772563 -0.704550 -0.083193 0.704733 0.065857 0.401855 170 127 63
-0.472932 -0.582947 0.909592 -0.499924 -0.079897 0.862362 0.109436 0.375000 185 136 68
-0.501001 0.009102 0.957165 -0.501144 -0.096652 0.859920 0.109436 0.653564 35 25 11
-0.459052 -1.034601 0.884710 -0.491562 0.189215 0.850002 0.109436 0.126953 189 143 71
-0.255380 -1.028876 0.967496 -0.255867 0.155828 0.954039 0.162354 0.126953 194 148 74
-0.037605 -1.034373 0.997641 0.000488 0.189276 0.981903 0.215332 0.126953 194 148 74
0.180166 -1.028895 0.967505 0.255043 0.156224 0.954192 0.268066 0.126953 194 148 74
-0.800687 -0.475191 0.593419 -0.895230 -0.082400 0.437849 0.022308 0.429199 170 127 63
-0.699652 0.037301 0.814323 -0.703360 -0.100009 0.703726 0.065857 0.667236 150 110 52
-0.529069 0.601151 1.004737 -0.345897 -0.723869 0.596942 0.109436 0.932495 73 55 28
-0.294314 0.601369 1.113993 -0.172857 -0.737907 0.652364 0.162354 0.932495 73 55 28
-0.036449 0.601414 1.136735 0.000122 -0.724693 0.689047 0.215332 0.932495 74 55 28
0.205754 0.005329 1.054548 0.257424 -0.097354 0.961364 0.268066 0.650391 35 25 11
0.190028 -0.590711 0.995123 0.259499 -0.084109 0.962066 0.268066 0.368652 194 148 74
0.383826 -1.034596 0.884724 0.491592 0.188635 0.850124 0.321045 0.126953 188 141 70
0.399345 -0.583094 0.909008 0.501053 -0.080477 0.861629 0.321045 0.375000 185 136 68
0.557384 -1.029311 0.749712 0.698111 0.154973 0.698965 0.370361 0.126953 170 127 63
0.583259 -0.526326 0.773083 0.704062 -0.084262 0.705069 0.370361 0.401855 170 127 63
0.692349 -1.035221 0.576214 0.882015 0.186041 0.432844 0.419922 0.126953 170 127 63
0.725412 -0.474554 0.594994 0.894589 -0.083773 0.438917 0.419922 0.429199 134 95 46
-0.845189 0.062619 0.618766 -0.899625 -0.096713 0.425794 0.022308 0.680664 169 127 63
-0.741054 0.600854 0.856082 -0.474776 -0.738701 0.478378 0.065857 0.932495 74 55 28
-0.889692 0.600430 0.644114 -0.606830 -0.742363 0.283914 0.022308 0.932495 74 55 28
0.221480 0.601369 1.113973 0.172857 -0.738090 0.652181 0.268066 0.932495 74 55 28
0.427758 0.009028 0.956873 0.501572 -0.097262 0.859615 0.321045 0.653564 35 25 11
0.625699 0.037264 0.814579 0.703085 -0.100925 0.703879 0.370361 0.667236 168 125 62
0.456171 0.601151 1.004737 0.345805 -0.724082 0.596728 0.321045 0.932495 74 55 28
0.668139 0.600854 0.856075 0.474624 -0.738975 0.478133 0.370361 0.932495 74 55 28
0.771103 0.062938 0.619554 0.899289 -0.098117 0.426191 0.419922 0.680664 168 126 63
0.816794 0.600430 0.644114 0.606433 -0.742790 0.283670 0.419922 0.932495 73 55 28
1.536831 -1.022208 0.154733 0.838710 -0.544542 0.001068 0.231165 0.288855 49 34 14
1.394242 -1.078819 0.276436 0.229530 -0.887600 0.399304 0.230809 0.288862 48 33 13
1.464442 -1.079062 0.154847 0.459059 -0.888394 0.001770 0.231031 0.288359 49 34 14
1.443213 -0.307100 -0.053105 0.533128 0.083071 -0.841914 0.223023 0.256191 91 66 27
1.562382 -0.950238 0.154589 0.986877 -0.161321 0.000305 0.231353 0.289317 49 34 14
1.443213 -0.950650 -0.051819 0.493423 -0.163030 -0.854335 0.230897 0.288189 49 34 13
1.430437 -1.021840 0.339013 0.419355 -0.543077 0.727439 0.230760 0.289642 47 32 14
1.253843 -1.078819 0.276437 -0.229499 -0.887600 0.399304 0.230230 0.289038 47 32 13
1.324042 -1.098521 0.154886 0.000000 -0.999969 0.001984 0.230872 0.287633 49 34 14
1.394242 -1.079305 0.033257 0.229530 -0.889187 -0.395764 0.230707 0.287906 49 34 13
1.430437 -1.022576 -0.029547 0.419355 -0.545976 -0.725242 0.230737 0.288086 49 34 13
1.437984 -0.092430 0.152876 0.630665 0.775994 -0.007355 0.264873 0.238803 194 148 74
1.363818 -0.175086 -0.053368 0.332926 0.434950 -0.836604 0.222960 0.230383 197 147 73
1.299640 -0.138410 -0.053442 0.158544 0.544847 -0.823389 0.218935 0.212365 197 150 75
1.517910 -0.187326 0.153065 0.867916 0.496628 -0.007172 0.254899 0.254569 194 148 74
1.421242 -0.228860 -0.053261 0.495682 0.308115 -0.811975 0.224885 0.245018 162 115 55
1.204872 -0.370924 -0.052977 -0.136998 -0.169256 -0.975982 0.152675 0.263984 194 148 74
1.204872 -0.950666 -0.051819 -0.493423 -0.163060 -0.854335 0.228775 0.288166 45 31 12
1.217648 -1.022585 -0.029547 -0.419324 -0.546037 -0.725242 0.229399 0.288174 46 31 12
1.253843 -1.079305 0.033257 -0.229469 -0.889218 -0.395734 0.230007 0.288001 47 32 13
1.183642 -1.079062 0.154847 -0.458937 -0.888455 0.001770 0.229763 0.288644 46 31 13
1.217648 -1.021849 0.339014 -0.419324 -0.543138 0.727409 0.229760 0.289997 45 30 13
1.443213 -0.949825 0.360997 0.493423 -0.159612 0.854976 0.230746 0.290375 46 32 13
1.111253 -1.022233 0.154733 -0.838649 -0.544633 0.001068 0.228898 0.289381 44 30 12
1.204872 -0.132584 -0.053453 0.055757 0.513138 -0.856471 0.202770 0.180118 183 134 67
1.336723 -0.037291 0.152765 0.328806 0.944334 -0.008362 0.277783 0.217206 194 148 74
1.363818 -0.174261 0.359448 0.319376 0.440596 0.838923 0.295054 0.270912 194 148 74
1.421242 -0.228035 0.359555 0.494156 0.295907 0.817438 0.280268 0.276759 194 148 74
1.085702 -0.950284 0.154589 -0.986877 -0.161382 0.000305 0.227945 0.290113 43 30 12
1.204872 -0.949841 0.360998 -0.493423 -0.159642 0.854976 0.229296 0.290959 43 30 12
1.562382 -0.306688 0.153304 0.985717 0.168218 -0.000336 0.246758 0.266996 188 142 72
1.443213 -0.306275 0.359712 0.533128 0.086428 0.841578 0.270225 0.284340 194 148 74
1.204872 -0.370099 0.359840 -0.136998 -0.165349 0.976653 0.307250 0.361228 184 138 68
1.085702 -0.489681 0.153669 -0.670858 -0.741569 0.001465 0.189887 0.396473 48 33 14
1.299640 -0.137585 0.359375 0.170141 0.536332 0.826655 0.313656 0.264717 189 143 73
1.204872 -0.013002 0.152717 0.110355 0.993835 -0.009156 0.303029 0.176161 194 148 74
0.542397 -0.039717 0.030447 0.006836 0.864986 -0.501694 0.249242 0.536684 182 136 68
0.542397 -0.132584 -0.053453 0.000000 0.498245 -0.867000 0.370057 0.486143 170 127 63
0.542397 -0.251830 -0.091452 0.006836 -0.001984 -0.999969 0.478260 0.411759 170 127 63
0.542397 -0.370924 -0.052977 0.000000 -0.501724 -0.865017 0.501677 0.288348 170 127 63
0.542397 -0.463455 0.031294 0.008301 -0.867031 -0.498154 0.501677 0.160687 162 120 59
1.204872 -0.131759 0.359363 0.044893 0.508286 0.859981 0.349806 0.262470 182 135 67
0.542397 -0.489681 0.153669 0.000000 -0.999969 0.001984 0.373569 0.065941 170 127 63
0.542397 -0.462966 0.275939 0.008301 -0.865047 0.501602 0.225606 0.000103 140 106 53
0.542397 -0.370099 0.359840 0.000000 -0.498245 0.867000 0.110463 0.060747 185 138 68
0.542397 -0.250853 0.397838 0.006836 0.001984 0.999969 0.008998 0.142510 148 105 52
0.542397 -0.131759 0.359363 0.000000 0.501724 0.865017 0.000103 0.273504 174 129 64
0.542397 -0.039228 0.275092 0.006836 0.867000 0.498245 0.018331 0.403400 170 127 63
0.542397 -0.013002 0.152717 0.000000 0.999969 -0.001984 0.125340 0.484601 171 125 62
-0.858206 1.128615 0.624117 -0.785974 0.420820 0.452895 0.853516 0.331543 182 136 66
-0.511449 1.129308 0.970875 -0.453658 0.422040 0.784875 0.914551 0.206543 143 103 50
-0.455284 1.287587 0.872574 -0.355327 0.713523 0.603809 0.928711 0.255859 194 148 74
-0.905692 0.931528 0.652156 -0.636097 0.679281 0.365917 0.823730 0.296875 178 133 66
-1.040021 0.930527 0.150832 -0.734642 0.678426 -0.001343 0.796387 0.500000 134 97 45
-0.037605 0.928524 -0.851816 -0.000153 0.677877 -0.735160 0.982910 0.913757 170 127 63
-0.037062 0.822557 -1.072435 -0.000214 0.548296 -0.836268 0.982910 0.993332 170 127 63
-0.648800 0.822885 -0.908520 -0.417982 0.547868 -0.724631 0.874512 0.936707 170 127 63
-0.538698 0.928792 -0.717487 -0.367046 0.677602 -0.637226 0.897949 0.856323 170 127 63
-1.096623 0.823779 -0.460696 -0.723991 0.547990 -0.418928 0.783203 0.753784 170 127 63
-0.905692 0.929525 -0.350492 -0.636097 0.677816 -0.368633 0.823730 0.707031 170 127 63
-1.260537 0.825002 0.151043 -0.836024 0.548662 -0.001068 0.749512 0.500000 170 127 63
-1.096623 0.826224 0.762781 -0.723991 0.549669 0.416761 0.783203 0.250000 170 127 63
-0.538698 0.932262 1.019150 -0.367046 0.680166 0.634510 0.897949 0.147461 185 136 68
-0.037605 1.129562 1.097797 0.000153 0.423048 0.906095 0.998535 0.153809 194 148 74
-0.038166 1.287810 0.984338 -0.000153 0.712058 0.702078 0.998535 0.210938 189 143 73
-0.038452 1.336346 0.907479 -0.000488 0.738517 0.674215 0.998535 0.237305 175 130 66
-0.208768 1.389151 0.800459 -0.327219 0.696036 0.639058 0.969727 0.273926 175 132 66
-0.039202 1.623827 0.747610 -0.001770 0.656819 0.754021 0.998535 0.314453 194 148 74
-0.196849 1.659901 0.573024 -0.670064 0.621235 0.406201 0.971680 0.381348 192 143 70
-0.039358 1.766551 0.574699 -0.001862 0.866512 0.499100 0.998535 0.408203 194 148 74
-0.511449 1.126030 -0.669999 -0.453658 0.418897 -0.786554 0.915039 0.796997 185 138 68
-0.038166 1.284477 -0.684095 -0.000244 0.611164 -0.791467 0.998535 0.791504 194 148 74
-0.037605 1.125777 -0.796921 0.000153 0.419416 -0.907773 0.998535 0.849121 60 42 19
-0.648800 0.827118 1.210604 -0.417982 0.550737 0.722434 0.874512 0.067383 170 127 64
-0.037605 0.932530 1.153480 -0.000153 0.680807 0.732444 0.998535 0.089844 185 136 68
-0.037062 0.827446 1.374519 -0.000214 0.551653 0.834071 0.999023 0.010742 170 127 63
-0.287714 1.441893 0.662423 -0.512070 0.740226 0.435682 0.951660 0.322266 182 135 67
-0.039501 1.836899 0.372237 -0.001099 0.976745 0.214362 0.998535 0.440430 194 148 74
-0.132435 1.808584 0.372057 -0.523972 0.816095 0.243690 0.982422 0.440430 194 148 74
0.053529 1.808845 0.372056 0.513047 0.820826 0.250954 0.982422 0.440430 194 148 74
-0.334489 1.492061 0.406016 -0.591815 0.784082 0.186865 0.947754 0.411133 175 129 66
-0.224739 1.712567 0.371541 -0.770104 0.600299 0.215674 0.967285 0.440918 188 139 72
-0.251038 1.729665 0.149235 -0.795526 0.605823 -0.008881 0.962891 0.500000 177 131 66
-0.551349 1.440877 0.445770 -0.357280 0.909604 0.212012 0.910156 0.397461 194 148 74
-0.760628 1.286977 0.567229 -0.610370 0.710166 0.350841 0.878418 0.359863 194 148 74
-0.985128 1.127669 0.150438 -0.907651 0.419691 -0.000824 0.831055 0.500000 185 136 68
-0.858206 1.126723 -0.323242 -0.785974 0.419019 -0.454573 0.853516 0.672607 185 136 68
-0.455284 1.284701 -0.572331 -0.349101 0.713797 -0.607105 0.929688 0.747070 194 148 74
-0.302610 1.439845 -0.362799 -0.476363 0.748802 -0.460768 0.953613 0.681641 189 143 73
-0.038810 1.450216 -0.614662 -0.001862 0.517594 -0.855617 0.998535 0.740967 194 148 73
-0.217716 1.624408 -0.272761 -0.662954 0.611194 -0.432295 0.971680 0.630127 168 123 60
-0.039110 1.652667 -0.414463 -0.001099 0.763787 -0.645436 0.998535 0.647217 170 127 66
-0.223148 1.703145 -0.113642 -0.751640 0.621174 -0.221595 0.967285 0.566895 175 129 66
-0.129175 1.775869 -0.132644 -0.449324 0.837581 -0.310648 0.982422 0.573486 182 136 68
-0.139117 1.830638 0.149034 -0.490493 0.870693 -0.036042 0.980957 0.500000 195 146 73
-0.329516 1.491037 -0.106595 -0.611103 0.773309 -0.168798 0.948730 0.592773 182 136 66
-0.551349 1.439695 -0.146143 -0.358135 0.908872 -0.213569 0.910156 0.606445 194 148 74
-0.760628 1.285311 -0.266987 -0.610370 0.708701 -0.353740 0.878418 0.643799 194 148 74
-0.872391 1.286144 0.150122 -0.704764 0.709433 -0.001343 0.859375 0.500000 189 142 73
-0.630651 1.440072 0.149814 -0.417646 0.908567 -0.001679 0.896484 0.500000 194 148 74
-0.356423 1.509083 0.149676 -0.621052 0.783715 -0.006806 0.944336 0.500000 178 132 66
0.139170 1.625305 -0.272764 0.658895 0.614856 -0.433302 0.971680 0.630127 168 123 60
0.050386 1.776131 -0.132645 0.442885 0.838984 -0.316080 0.982422 0.573486 182 136 68
-0.039423 1.800110 -0.138978 -0.002167 0.940703 -0.339152 0.998535 0.575684 183 137 66
-0.039644 1.860605 0.148974 -0.002106 0.998840 -0.048036 0.998535 0.500000 195 148 74
0.059979 1.830937 0.149033 0.478866 0.877041 -0.038026 0.981445 0.500000 196 146 73
0.379061 1.284701 -0.572331 0.349101 0.713034 -0.608020 0.929199 0.747314 194 148 74
0.435914 1.126030 -0.669999 0.453230 0.420362 -0.786035 0.914551 0.797119 185 138 68
0.463948 0.928792 -0.717487 0.366710 0.678487 -0.636494 0.897461 0.856323 170 127 63
0.574675 0.822885 -0.908520 0.417188 0.549181 -0.724082 0.874023 0.936707 170 127 63
0.172348 1.730861 0.149233 0.800226 0.599628 -0.007355 0.962891 0.500000 177 131 66
0.473871 1.442457 -0.146148 0.358531 0.908231 -0.215644 0.910156 0.606445 194 148 74
0.684405 1.285311 -0.266987 0.611133 0.707755 -0.354320 0.877930 0.643799 194 148 74
0.782670 1.126723 -0.323242 0.784906 0.421552 -0.454054 0.853027 0.672607 185 136 68
0.830941 0.929525 -0.350492 0.634907 0.679342 -0.367870 0.823242 0.707031 170 127 63
0.118303 1.660797 0.573022 0.666829 0.624409 0.406720 0.971680 0.381348 192 143 70
0.146121 1.713613 0.371539 0.774194 0.593860 0.218848 0.967285 0.440918 188 139 72
0.278641 1.511076 0.149672 0.614215 0.789117 -0.002350 0.943848 0.500000 178 133 66
0.553173 1.443261 0.149808 0.419355 0.907804 -0.001679 0.896484 0.500000 194 148 74
0.796169 1.286144 0.150122 0.705679 0.708487 -0.001343 0.858887 0.500000 189 141 73
0.909592 1.127669 0.150438 0.906278 0.422620 -0.000824 0.830566 0.500000 185 136 68
0.965271 0.930527 0.150832 0.733024 0.680166 -0.001343 0.795898 0.500000 129 93 42
0.830941 0.931528 0.652156 0.634907 0.680807 0.365154 0.822754 0.296875 177 131 66
0.782670 1.128615 0.624118 0.784906 0.423353 0.452376 0.853027 0.331543 182 136 66
0.463948 0.932262 1.019150 0.366710 0.681021 0.633778 0.896973 0.147461 185 136 68
0.435914 1.129308 0.970875 0.453230 0.423505 0.784326 0.914063 0.206055 130 93 44
0.684405 1.286977 0.567230 0.611103 0.709220 0.351421 0.877930 0.359863 194 148 74
0.379061 1.287587 0.872574 0.355113 0.712851 0.604724 0.928223 0.255859 194 148 74
0.473871 1.443639 0.445764 0.357677 0.908963 0.214087 0.910156 0.397461 194 148 74
0.210213 1.443488 0.662420 0.509537 0.740898 0.437483 0.951660 0.322266 182 135 67
0.256848 1.493855 0.406013 0.586108 0.789239 0.183172 0.947754 0.411133 175 129 66
0.131565 1.389948 0.800457 0.325571 0.695303 0.640706 0.969727 0.273926 175 132 66
1.022497 0.823779 -0.460696 0.722556 0.550279 -0.418409 0.782227 0.753784 170 127 63
1.186412 0.825002 0.151043 0.834284 0.551286 -0.001099 0.749023 0.500000 170 127 63
1.022497 0.826224 0.762781 0.722556 0.551958 0.416181 0.782227 0.250000 170 127 63
0.574675 0.827118 1.210604 0.417188 0.552080 0.721885 0.874023 0.067383 170 127 64
-0.037062 0.827446 1.374519 -0.000214 0.551653 0.834071 0.998047 0.010742 170 127 63
-0.037605 0.932530 1.153480 -0.000153 0.680807 0.732444 0.998047 0.089844 185 136 68
-0.037605 1.129562 1.097797 0.000153 0.423048 0.906095 0.998047 0.154297 194 148 74
-0.038166 1.287810 0.984338 -0.000153 0.712058 0.702078 0.998047 0.210938 189 143 73
-0.978387 0.166094 0.152359 -0.995117 -0.098453 0.001770 0.619629 0.731201 158 118 59
-0.889692 0.600430 0.644114 -0.606830 -0.742363 0.283914 0.519531 0.932495 74 55 28
-1.021688 0.599446 0.151493 -0.646443 -0.762932 0.002777 0.619629 0.932495 73 55 28
-0.845189 0.062619 0.618766 -0.899625 -0.096713 0.425794 0.519531 0.680664 169 127 63
-0.935086 -0.267259 0.153225 -0.996094 -0.088076 0.000916 0.619629 0.529541 170 127 63
-0.800687 -0.475191 0.593419 -0.895230 -0.082400 0.437849 0.519531 0.429199 170 127 63
-0.880480 -1.036061 0.154761 -0.982635 0.185522 -0.000275 0.619629 0.126953 170 127 63
-0.767559 -1.035215 0.576196 -0.881924 0.186499 0.432875 0.519531 0.126953 170 127 63
1.044628 0.626844 0.775644 0.713279 -0.568499 0.409864 0.495117 0.669678 169 127 63
0.948791 0.599446 0.151493 0.644734 -0.764397 0.000092 0.594727 0.763550 73 55 28
1.211882 0.625598 0.151441 0.821039 -0.570849 0.001038 0.595215 0.669678 169 127 63
0.816794 0.600430 0.644114 0.606433 -0.742790 0.283670 0.495117 0.763550 73 55 28
0.668139 0.600854 0.856075 0.474624 -0.738975 0.478133 0.445068 0.763550 74 55 28
0.587680 0.627757 1.232592 0.411695 -0.566668 0.713675 0.395020 0.669678 169 127 63
0.456171 0.601151 1.004737 0.345805 -0.724082 0.596728 0.395020 0.763550 74 55 28
0.221480 0.601369 1.113973 0.172857 -0.738090 0.652181 0.445068 0.763550 74 55 28
-0.036522 0.628092 1.399847 0.000305 -0.567003 0.823695 0.495117 0.669678 169 127 63
-0.036449 0.601414 1.136735 0.000122 -0.724693 0.689047 0.495117 0.763550 74 55 28
-0.294314 0.601369 1.113993 -0.172857 -0.737907 0.652364 0.544922 0.763550 73 55 28
-0.660724 0.627757 1.232592 -0.410840 -0.567766 0.713309 0.594727 0.669678 169 127 63
-0.529069 0.601151 1.004737 -0.345897 -0.723869 0.596942 0.594727 0.763550 73 55 28
-0.741054 0.600854 0.856082 -0.474776 -0.738701 0.478378 0.645020 0.763550 74 55 28
-1.117671 0.626844 0.775644 -0.711997 -0.570360 0.409528 0.694824 0.669678 169 127 63
-0.889692 0.600430 0.644114 -0.606830 -0.742363 0.283914 0.694824 0.763550 74 55 28
-1.284926 0.625598 0.151441 -0.819575 -0.572954 0.001129 0.594727 0.669678 169 127 63
-1.021688 0.599446 0.151493 -0.646443 -0.762932 0.002777 0.594727 0.763550 73 55 28
-1.117671 0.624351 -0.472762 -0.712180 -0.571764 -0.407239 0.495117 0.669678 169 127 63
-1.284926 0.625598 0.151441 -0.819575 -0.572954 0.001129 0.595215 0.669678 169 127 63
-0.892003 0.598462 -0.341128 -0.606922 -0.744011 -0.279427 0.495117 0.763550 74 55 28
-0.743348 0.598038 -0.553088 -0.474899 -0.740562 -0.475387 0.445068 0.763550 74 55 28
-0.660724 0.623438 -0.929711 -0.410871 -0.570421 -0.711173 0.395020 0.669678 169 127 63
-0.531380 0.597741 -0.701751 -0.345897 -0.726310 -0.593951 0.395020 0.763550 74 55 28
-0.296689 0.597523 -0.810987 -0.172887 -0.740562 -0.649312 0.445068 0.763550 146 109 55
-0.036522 0.623103 -1.096966 0.000366 -0.570269 -0.821436 0.495117 0.669678 169 127 63
-0.038760 0.597478 -0.833748 -0.000153 -0.727439 -0.686148 0.495117 0.763550 147 110 55
0.219105 0.597523 -0.811007 0.172796 -0.740593 -0.649312 0.544922 0.763550 146 109 55
0.587680 0.623438 -0.929711 0.411695 -0.569689 -0.711264 0.594727 0.669678 169 127 63
0.453860 0.597741 -0.701751 0.345775 -0.726371 -0.593921 0.594727 0.763550 73 55 28
0.665845 0.598038 -0.553095 0.474532 -0.740928 -0.475204 0.645020 0.763550 74 55 28
1.044628 0.624351 -0.472762 0.713095 -0.570421 -0.407483 0.694824 0.669678 169 127 63
0.814483 0.598462 -0.341128 0.606464 -0.743339 -0.282113 0.694824 0.763550 74 55 28
1.211882 0.625598 0.151441 0.821039 -0.570849 0.001038 0.594727 0.669678 169 127 63
0.904950 0.166996 0.152357 0.995025 -0.099521 -0.001404 0.619629 0.731201 158 118 59
0.814483 0.598462 -0.341128 0.606464 -0.743339 -0.282113 0.519531 0.932495 74 55 28
0.948791 0.599446 0.151493 0.644734 -0.764397 0.000092 0.619629 0.932495 73 55 28
0.769980 0.060757 -0.313632 0.898984 -0.098575 -0.426710 0.519531 0.680664 169 127 63
0.861109 -0.265455 0.153221 0.996002 -0.089114 -0.000580 0.619629 0.529541 170 127 63
0.725477 -0.476948 -0.286135 0.894864 -0.084414 -0.438215 0.519531 0.429199 170 127 63
0.805281 -1.036066 0.154761 0.982696 0.185186 -0.000427 0.619629 0.126953 170 127 63
0.692349 -1.036899 -0.266675 0.881924 0.184729 -0.433637 0.519531 0.126953 169 126 63
-0.296689 0.597523 -0.810987 -0.172887 -0.740562 -0.649312 0.268066 0.932495 146 109 55
-0.502967 0.005815 -0.651521 -0.501572 -0.100711 -0.859218 0.321045 0.653564 35 25 11
-0.531380 0.597741 -0.701751 -0.345897 -0.726310 -0.593951 0.321045 0.932495 74 55 28
-0.280963 0.001726 -0.749180 -0.256081 -0.102969 -0.961119 0.268066 0.650391 35 25 11
-0.038760 0.597478 -0.833748 -0.000153 -0.727439 -0.686148 0.215332 0.932495 147 110 55
-0.039630 -0.004778 -0.775200 -0.001221 -0.100253 -0.994934 0.215332 0.647461 170 127 63
0.202729 0.001695 -0.749606 0.254494 -0.102664 -0.961577 0.162354 0.650391 35 25 11
0.219105 0.597523 -0.811007 0.172796 -0.740593 -0.649312 0.162354 0.932495 146 109 55
0.425792 0.005888 -0.651813 0.501144 -0.100101 -0.859523 0.109436 0.653564 35 25 11
0.453860 0.597741 -0.701751 0.345775 -0.726371 -0.593921 0.109436 0.932495 73 55 28
-0.700908 0.034619 -0.509341 -0.703085 -0.103732 -0.703482 0.370361 0.667236 168 125 62
-0.743348 0.598038 -0.553088 -0.474899 -0.740562 -0.475387 0.370361 0.932495 74 55 28
-0.658468 -0.528800 -0.465593 -0.704062 -0.087069 -0.704733 0.370361 0.401855 170 127 63
-0.474554 -0.586111 -0.601291 -0.501053 -0.083926 -0.861324 0.321045 0.375000 185 136 68
-0.265238 -0.594072 -0.687374 -0.257881 -0.085940 -0.962310 0.268066 0.368652 194 148 74
-0.040500 -0.607034 -0.716651 -0.003235 -0.081515 -0.996643 0.215332 0.362305 41 28 12
0.186353 -0.594133 -0.688206 0.255043 -0.085116 -0.963164 0.162354 0.368652 194 148 74
0.397723 -0.585966 -0.601875 0.499924 -0.083346 -0.862026 0.109436 0.375000 185 136 68
0.583041 -0.528725 -0.465074 0.704520 -0.086001 -0.704398 0.065857 0.401855 170 127 63
0.624443 0.034657 -0.509085 0.703360 -0.102817 -0.703330 0.065857 0.667236 150 110 52
0.665845 0.598038 -0.553095 0.474532 -0.740928 -0.475204 0.065857 0.932495 74 55 28
0.769980 0.060757 -0.313632 0.898984 -0.098575 -0.426710 0.022308 0.680664 169 127 63
0.814483 0.598462 -0.341128 0.606464 -0.743339 -0.282113 0.022308 0.932495 74 55 28
0.725477 -0.476948 -0.286135 0.894864 -0.084414 -0.438215 0.022308 0.429199 170 127 63
0.692349 -1.036899 -0.266675 0.881924 0.184729 -0.433637 0.022308 0.126953 169 126 63
0.557363 -1.031696 -0.440225 0.698019 0.152745 -0.699545 0.065857 0.126953 170 127 66
0.383843 -1.037517 -0.575190 0.491562 0.185797 -0.850765 0.109436 0.126953 197 146 73
0.180171 -1.032123 -0.657997 0.255867 0.152013 -0.954650 0.162354 0.126953 194 148 74
-0.037605 -1.037740 -0.688120 -0.000488 0.185339 -0.982665 0.215332 0.126953 194 148 74
-0.255376 -1.032142 -0.658006 -0.255043 0.152379 -0.954833 0.268066 0.126953 195 149 75
-0.459035 -1.037512 -0.575203 -0.491592 0.185247 -0.850856 0.321045 0.126953 197 146 73
-0.632593 -1.031688 -0.440213 -0.698111 0.152196 -0.699576 0.370361 0.126953 172 128 66
-0.767558 -1.036904 -0.266693 -0.882015 0.184332 -0.433576 0.419922 0.126953 170 127 63
-0.800621 -0.476318 -0.287713 -0.894955 -0.085238 -0.437880 0.419922 0.429199 134 95 46
-0.846312 0.061072 -0.314420 -0.899899 -0.099643 -0.424482 0.419922 0.680664 168 125 62
-0.892003 0.598462 -0.341128 -0.606922 -0.744011 -0.279427 0.419922 0.932495 74 55 28
0.816794 0.600430 0.644114 0.606433 -0.742790 0.283670 0.519531 0.932495 73 55 28
0.904950 0.166996 0.152357 0.995025 -0.099521 -0.001404 0.419678 0.731201 158 118 59
0.948791 0.599446 0.151493 0.644734 -0.764397 0.000092 0.419678 0.932495 73 55 28
0.771103 0.062938 0.619554 0.899289 -0.098117 0.426191 0.519531 0.680664 168 126 63
0.861109 -0.265455 0.153221 0.996002 -0.089114 -0.000580 0.419678 0.529541 170 127 63
0.725412 -0.474554 0.594994 0.894589 -0.083773 0.438917 0.519531 0.429199 134 95 46
0.805281 -1.036066 0.154761 0.982696 0.185186 -0.000427 0.419678 0.126953 170 127 63
0.692349 -1.035221 0.576214 0.882015 0.186041 0.432844 0.519531 0.126953 170 127 63
-0.823613 -1.594788 -0.297917 -0.687765 -0.608478 -0.395856 0.150635 0.851929 105 78 39
-0.037605 -1.593882 0.155875 0.000000 -0.999969 0.001984 0.215576 0.997658 76 57 28
-0.945207 -1.593882 0.155875 -0.794153 -0.607685 0.001190 0.140137 0.851929 105 78 39
-0.491411 -1.595452 -0.630118 -0.397076 -0.609058 -0.686544 0.179443 0.851929 104 78 39
-0.037605 -1.595695 -0.751713 0.000000 -0.609272 -0.792932 0.218628 0.851929 104 78 39
0.416183 -1.595452 -0.630119 0.397076 -0.609058 -0.686544 0.257813 0.851929 105 78 39
0.748385 -1.594788 -0.297917 0.687765 -0.608478 -0.395856 0.286621 0.851929 104 78 39
0.869979 -1.593882 0.155875 0.794153 -0.607685 0.001190 0.297119 0.851929 104 78 39
0.748384 -1.592975 0.609674 0.687765 -0.606891 0.398267 0.286621 0.851929 104 78 39
-0.037605 -1.593882 0.155875 0.000000 -0.999969 0.001984 0.215576 0.997463 76 57 28
0.416183 -1.592312 0.941875 0.397076 -0.606311 0.688955 0.257813 0.851929 105 78 39
-0.037605 -1.592069 1.063469 0.000000 -0.606098 0.795373 0.218628 0.851929 104 78 39
-0.491411 -1.592312 0.941875 -0.397076 -0.606311 0.688955 0.179443 0.851929 104 78 39
-0.823612 -1.592975 0.609674 -0.687765 -0.606891 0.398267 0.150635 0.851929 105 78 39
-0.872551 -1.301400 0.637346 -0.810175 -0.378216 0.447798 0.015274 0.012695 170 127 64
-0.632573 -1.029319 0.749724 -0.698019 0.155553 0.698935 0.065247 0.125488 171 127 66
-0.767559 -1.035215 0.576196 -0.881924 0.186499 0.432875 0.015274 0.125488 170 127 63
-0.519665 -1.300695 0.990231 -0.460311 -0.388714 0.798090 0.115234 0.012695 160 113 55
-0.459052 -1.034601 0.884710 -0.491562 0.189215 0.850002 0.115234 0.125488 189 143 71
-0.255380 -1.028876 0.967496 -0.255867 0.155828 0.954039 0.165161 0.125488 194 148 74
-0.037605 -1.300437 1.119396 0.000000 -0.388470 0.921445 0.215210 0.012695 194 148 74
-0.037605 -1.034373 0.997641 0.000488 0.189276 0.981903 0.215210 0.125488 194 148 74
0.180166 -1.028895 0.967505 0.255043 0.156224 0.954192 0.264160 0.125488 194 148 74
0.444437 -1.300695 0.990231 0.460311 -0.388745 0.798090 0.313232 0.012695 185 136 68
0.383826 -1.034596 0.884724 0.491592 0.188635 0.850124 0.313232 0.125488 188 141 70
0.557384 -1.029311 0.749712 0.698111 0.154973 0.698965 0.363525 0.125488 170 127 63
0.797323 -1.301400 0.637346 0.810175 -0.378246 0.447798 0.413574 0.012695 170 127 63
0.692349 -1.035221 0.576214 0.882015 0.186041 0.432844 0.413574 0.125488 170 127 63
0.805281 -1.036066 0.154761 0.982696 0.185186 -0.000427 0.513672 0.125488 170 127 63
0.926489 -1.302363 0.155293 0.929960 -0.367565 0.000702 0.513672 0.012695 170 127 63
-0.892003 0.598462 -0.341128 -0.606922 -0.744011 -0.279427 0.519531 0.932495 74 55 28
-0.978387 0.166094 0.152359 -0.995117 -0.098453 0.001770 0.419678 0.731201 158 118 59
-1.021688 0.599446 0.151493 -0.646443 -0.762932 0.002777 0.419678 0.932495 73 55 28
-0.846312 0.061072 -0.314420 -0.899899 -0.099643 -0.424482 0.519531 0.680664 168 125 62
-0.935086 -0.267259 0.153225 -0.996094 -0.088076 0.000916 0.419678 0.529541 170 127 63
-0.800621 -0.476318 -0.287713 -0.894955 -0.085238 -0.437880 0.519531 0.429199 134 95 46
-0.880480 -1.036061 0.154761 -0.982635 0.185522 -0.000275 0.419678 0.126953 170 127 63
-0.767558 -1.036904 -0.266693 -0.882015 0.184332 -0.433576 0.519531 0.126953 170 127 63
-1.096623 0.823779 -0.460696 -0.723991 0.547990 -0.418928 0.495117 0.608887 170 127 63
-0.648800 0.822885 -0.908520 -0.417982 0.547868 -0.724631 0.395020 0.608887 170 127 63
-0.037062 0.822557 -1.072435 -0.000214 0.548296 -0.836268 0.495117 0.608887 170 127 63
0.574675 0.822885 -0.908520 0.417188 0.549181 -0.724082 0.594727 0.608887 170 127 63
1.022497 0.823779 -0.460696 0.722556 0.550279 -0.418409 0.695313 0.608887 170 127 63
1.044628 0.624351 -0.472762 0.713095 -0.570421 -0.407483 0.695313 0.669678 169 127 63
1.186412 0.825002 0.151043 0.834284 0.551286 -0.001099 0.594727 0.608887 170 127 63
1.022497 0.826224 0.762781 0.722556 0.551958 0.416181 0.495117 0.608887 170 127 63
0.574675 0.827118 1.210604 0.417188 0.552080 0.721885 0.395020 0.608887 170 127 64
-0.037062 0.827446 1.374519 -0.000214 0.551653 0.834071 0.495117 0.608887 170 127 63
-0.648800 0.827118 1.210604 -0.417982 0.550737 0.722434 0.594727 0.608887 170 127 64
-1.096623 0.826224 0.762781 -0.723991 0.549669 0.416761 0.694824 0.608887 170 127 63
-1.260537 0.825002 0.151043 -0.836024 0.548662 -0.001068 0.594727 0.608887 170 127 63
-0.913315 -1.330141 0.155348 -0.802820 -0.596179 0.001160 0.617188 0.809082 124 93 46
-0.945207 -1.593882 0.155875 -0.794153 -0.607685 0.001190 0.617188 0.633301 105 78 39
-0.823612 -1.592975 0.609674 -0.687765 -0.606891 0.398267 0.743652 0.633301 105 78 39
-0.795993 -1.331015 -0.282499 -0.695273 -0.596973 -0.400220 0.492188 0.809082 124 93 46
-0.823613 -1.594788 -0.297917 -0.687765 -0.608478 -0.395856 0.492188 0.633301 105 78 39
-0.475464 -1.331656 -0.603026 -0.401410 -0.597552 -0.694082 0.378418 0.809082 125 94 46
-0.491411 -1.595452 -0.630118 -0.397076 -0.609058 -0.686544 0.378418 0.633301 104 78 39
-0.037605 -1.331890 -0.720348 0.000000 -0.597766 -0.801630 0.492188 0.809082 124 93 46
-0.037605 -1.595695 -0.751713 0.000000 -0.609272 -0.792932 0.492188 0.633301 104 78 39
0.400236 -1.331656 -0.603026 0.401410 -0.597552 -0.694082 0.617188 0.809082 124 93 46
0.416183 -1.595452 -0.630119 0.397076 -0.609058 -0.686544 0.617188 0.633301 105 78 39
0.720765 -1.331015 -0.282498 0.695273 -0.596973 -0.400220 0.743652 0.809082 124 93 46
0.748385 -1.594788 -0.297917 0.687765 -0.608478 -0.395856 0.743652 0.633301 104 78 39
0.838087 -1.330141 0.155348 0.802820 -0.596179 0.001160 0.617188 0.809082 124 93 46
0.869979 -1.593882 0.155875 0.794153 -0.607685 0.001190 0.617188 0.633301 104 78 39
0.720765 -1.329266 0.593201 0.695273 -0.595355 0.402600 0.492188 0.809082 124 93 46
0.748384 -1.592975 0.609674 0.687765 -0.606891 0.398267 0.492188 0.633301 104 78 39
0.400236 -1.328626 0.913729 0.401410 -0.594775 0.696463 0.378418 0.809082 125 94 46
0.416183 -1.592312 0.941875 0.397076 -0.606311 0.688955 0.378418 0.633301 105 78 39
-0.037605 -1.328391 1.031051 0.000000 -0.594562 0.804010 0.492188 0.809082 124 93 46
-0.037605 -1.592069 1.063469 0.000000 -0.606098 0.795373 0.492188 0.633301 104 78 39
-0.475465 -1.328626 0.913729 -0.401410 -0.594775 0.696463 0.617188 0.809082 124 93 46
-0.491411 -1.592312 0.941875 -0.397076 -0.606311 0.688955 0.617188 0.633301 104 78 39
-0.795993 -1.329266 0.593201 -0.695273 -0.595355 0.402600 0.743652 0.809082 124 93 46
-1.001716 -1.302363 0.155293 -0.929991 -0.367534 0.000702 0.623535 0.844482 170 127 63
-0.795993 -1.329266 0.593201 -0.695273 -0.595355 0.402600 0.525879 0.788086 124 93 46
-0.872551 -1.301400 0.637346 -0.810175 -0.378216 0.447798 0.525879 0.844482 170 127 64
-0.475465 -1.328626 0.913729 -0.401410 -0.594775 0.696463 0.623535 0.788086 124 93 46
-0.519665 -1.300695 0.990231 -0.460311 -0.388714 0.798090 0.623535 0.844482 160 113 55
-0.037605 -1.328391 1.031051 0.000000 -0.594562 0.804010 0.525879 0.788086 124 93 46
-0.037605 -1.300437 1.119396 0.000000 -0.388470 0.921445 0.525879 0.844482 194 148 74
0.400236 -1.328626 0.913729 0.401410 -0.594775 0.696463 0.623535 0.788086 125 94 46
0.444437 -1.300695 0.990231 0.460311 -0.388745 0.798090 0.623535 0.844482 185 136 68
0.720765 -1.329266 0.593201 0.695273 -0.595355 0.402600 0.525879 0.788086 124 93 46
0.797323 -1.301400 0.637346 0.810175 -0.378246 0.447798 0.525879 0.844482 170 127 63
0.838087 -1.330141 0.155348 0.802820 -0.596179 0.001160 0.623535 0.788086 124 93 46
0.926489 -1.302363 0.155293 0.929960 -0.367565 0.000702 0.623535 0.844482 170 127 63
0.720765 -1.331015 -0.282498 0.695273 -0.596973 -0.400220 0.525879 0.788086 124 93 46
0.797323 -1.303326 -0.326754 0.810175 -0.380016 -0.446272 0.525879 0.844482 170 127 63
0.400236 -1.331656 -0.603026 0.401410 -0.597552 -0.694082 0.623535 0.788086 124 93 46
0.444438 -1.304031 -0.679639 0.460311 -0.391919 -0.796533 0.623535 0.844482 160 113 55
-0.037605 -1.331890 -0.720348 0.000000 -0.597766 -0.801630 0.525879 0.788086 124 93 46
-0.037605 -1.304289 -0.808805 0.000000 -0.392163 -0.919858 0.525879 0.844482 194 148 74
-0.475464 -1.331656 -0.603026 -0.401410 -0.597552 -0.694082 0.623535 0.788086 125 94 46
-0.519665 -1.304031 -0.679639 -0.460311 -0.391919 -0.796533 0.623535 0.844482 185 136 68
-0.795993 -1.331015 -0.282499 -0.695273 -0.596973 -0.400220 0.525879 0.788086 124 93 46
-0.872550 -1.303326 -0.326754 -0.810175 -0.380016 -0.446272 0.525879 0.844482 170 127 63
-0.913315 -1.330141 0.155348 -0.802820 -0.596179 0.001160 0.623535 0.788086 124 93 46
3 0 1 2
3 3 4 5
3 3 6 4
3 7 8 9
3 10 11 12
3 12 11 7
3 11 13 7
3 7 13 8
3 13 14 8
3 8 14 15
3 9 8 15
3 16 9 15
3 17 9 16
3 17 7 9
3 12 7 17
3 18 12 17
3 18 17 19
3 19 17 16
3 19 16 20
3 20 16 15
3 21 20 15
3 14 21 15
3 22 21 14
3 13 22 14
3 23 22 13
3 11 23 13
3 24 23 11
3 10 24 11
3 24 10 25
3 26 25 10
3 26 27 25
3 26 28 27
3 27 28 29
3 25 27 29
3 25 29 30
3 31 25 30
3 24 25 31
3 31 32 24
3 24 32 23
3 32 33 23
3 23 33 22
3 33 34 22
3 22 34 21
3 34 20 21
3 34 19 20
3 35 19 34
3 35 18 19
3 28 18 35
3 28 26 18
3 26 12 18
3 26 10 12
3 33 35 34
3 31 30 36
3 36 32 31
3 32 37 33
3 37 35 33
3 37 28 35
3 38 39 28
3 37 38 28
3 40 38 37
3 41 40 37
3 32 41 37
3 42 41 32
3 43 42 32
3 29 28 44
3 30 29 44
3 30 44 45
3 36 30 45
3 36 45 46
3 46 32 36
3 47 32 46
3 47 43 32
3 48 43 47
3 49 48 47
3 50 49 47
3 51 49 50
3 52 51 50
3 53 52 50
3 54 52 53
3 55 54 53
3 28 55 53
3 39 55 28
3 46 50 47
3 46 45 50
3 45 53 50
3 45 44 53
3 44 28 53
3 56 57 58
3 56 59 57
3 57 59 60
3 59 61 60
3 59 62 61
3 61 62 63
3 62 64 63
3 62 65 64
3 64 65 66
3 65 67 66
3 65 68 67
3 67 68 69
3 68 70 69
3 68 71 70
3 72 73 74
3 72 75 73
3 76 77 78
3 76 79 77
3 80 81 82
3 81 83 82
3 82 83 84
3 83 78 84
3 83 76 78
3 85 76 83
3 85 86 76
3 76 86 87
3 76 87 79
3 88 79 87
3 81 85 83
3 80 82 89
3 89 82 90
3 82 84 90
3 90 84 91
3 84 92 91
3 84 78 92
3 78 93 92
3 78 77 93
3 93 77 94
3 94 77 79
3 94 79 95
3 88 95 79
3 96 95 88
3 96 97 95
3 98 97 96
3 98 99 97
3 100 99 98
3 100 101 99
3 94 95 97
3 89 90 102
3 102 103 104
3 102 90 103
3 90 91 103
3 93 94 105
3 105 94 106
3 94 97 106
3 106 97 99
3 106 99 107
3 108 106 107
3 108 107 109
3 105 106 108
3 107 99 101
3 107 101 110
3 109 107 110
3 109 110 111
3 112 113 114
3 115 116 117
3 117 116 112
3 116 118 112
3 112 118 113
3 118 119 113
3 113 119 120
3 114 113 120
3 121 114 120
3 122 114 121
3 122 112 114
3 117 112 122
3 123 124 125
3 126 124 123
3 126 127 124
3 115 127 126
3 115 128 127
3 128 115 117
3 128 117 129
3 129 117 122
3 129 122 130
3 130 122 121
3 130 121 131
3 131 121 120
3 132 131 120
3 119 132 120
3 133 132 119
3 118 133 119
3 134 133 118
3 116 134 118
3 135 130 131
3 135 131 132
3 133 135 132
3 127 128 124
3 124 128 125
3 125 128 136
3 137 125 136
3 123 125 137
3 138 123 137
3 139 123 138
3 139 126 123
3 140 129 130
3 140 130 135
3 141 140 135
3 141 135 133
3 134 141 133
3 142 143 134
3 143 141 134
3 143 144 141
3 144 140 141
3 144 145 140
3 145 129 140
3 145 128 129
3 142 134 116
3 115 142 116
3 115 126 142
3 143 142 126
3 143 126 139
3 139 144 143
3 138 144 139
3 146 144 138
3 138 137 146
3 146 137 147
3 137 136 147
3 136 148 147
3 149 148 136
3 150 149 136
3 128 150 136
3 151 150 128
3 152 151 128
3 145 152 128
3 153 144 146
3 146 147 153
3 154 152 145
3 155 154 145
3 144 155 145
3 156 155 144
3 157 156 144
3 153 157 144
3 158 157 153
3 159 158 153
3 147 159 153
3 160 159 147
3 148 160 147
3 161 162 163
3 164 162 161
3 165 164 161
3 166 167 168
3 166 168 169
3 169 168 170
3 169 170 171
3 171 170 172
3 171 172 165
3 165 172 173
3 165 173 164
3 173 174 164
3 164 174 162
3 174 175 162
3 162 175 176
3 162 176 163
3 163 176 177
3 163 177 178
3 179 178 177
3 179 180 178
3 180 179 181
3 182 169 171
3 183 184 182
3 184 169 182
3 184 166 169
3 173 185 174
3 185 186 174
3 174 186 175
3 185 187 186
3 163 178 188
3 178 180 188
3 181 189 190
3 181 191 189
3 192 193 194
3 180 193 192
3 180 192 188
3 188 192 195
3 195 163 188
3 195 196 163
3 161 163 196
3 197 161 196
3 165 161 197
3 198 165 197
3 198 171 165
3 182 171 198
3 199 182 198
3 183 182 199
3 183 199 200
3 183 200 201
3 202 201 200
3 202 203 201
3 202 204 205
3 204 202 200
3 193 206 194
3 205 194 206
3 205 204 194
3 194 204 207
3 204 200 207
3 200 208 207
3 199 208 200
3 199 209 208
3 199 198 209
3 209 198 197
3 209 197 210
3 197 196 210
3 211 210 196
3 211 196 195
3 212 211 195
3 195 192 212
3 192 194 212
3 194 207 212
3 207 208 212
3 212 208 211
3 208 210 211
3 208 209 210
3 201 203 213
3 214 213 203
3 215 214 203
3 202 205 203
3 203 205 215
3 215 205 206
3 215 206 216
3 216 214 215
3 216 217 214
3 217 1 214
3 214 1 213
3 0 213 1
3 201 213 0
3 0 183 201
3 0 218 183
3 218 184 183
3 218 219 184
3 219 166 184
3 219 220 166
3 220 167 166
3 220 221 167
3 181 193 180
3 181 190 193
3 193 190 206
3 206 190 189
3 206 189 216
3 191 216 189
3 191 217 216
3 222 217 191
3 217 222 1
3 2 1 222
3 0 2 223
3 223 218 0
3 223 224 218
3 224 219 218
3 224 225 219
3 225 220 219
3 225 226 220
3 179 227 181
3 228 181 227
3 228 191 181
3 222 191 228
3 229 222 228
3 2 222 229
3 223 2 229
3 229 230 223
3 230 224 223
3 230 231 224
3 231 225 224
3 231 232 225
3 232 226 225
3 232 233 226
3 234 233 232
3 234 232 235
3 236 234 235
3 236 235 237
3 237 235 238
3 237 238 239
3 239 238 240
3 239 240 241
3 241 240 242
3 242 227 241
3 242 228 227
3 229 228 242
3 242 240 229
3 229 240 230
3 240 231 230
3 240 238 231
3 235 231 238
3 235 232 231
3 227 243 241
3 243 239 241
3 226 221 220
3 226 244 221
3 233 244 226
3 233 245 244
3 234 245 233
3 234 246 245
3 247 246 234
3 247 234 236
3 248 247 236
3 248 236 249
3 249 236 237
3 249 237 250
3 250 237 239
3 250 239 251
3 177 251 239
3 177 239 243
3 243 179 177
3 243 227 179
3 252 253 254
3 252 255 253
3 256 255 252
3 256 257 255
3 258 257 256
3 258 259 257
3 260 261 262
3 260 263 261
3 260 264 263
3 265 264 260
3 265 266 264
3 265 267 266
3 268 267 265
3 268 269 267
3 268 270 269
3 271 270 268
3 271 272 270
3 271 273 272
3 274 273 271
3 274 275 273
3 276 275 274
3 276 277 275
3 278 277 279
3 278 280 277
3 278 281 280
3 282 281 278
3 282 283 281
3 282 284 283
3 285 284 282
3 285 286 284
3 285 287 286
3 288 287 285
3 288 289 287
3 288 290 289
3 291 290 288
3 291 292 290
3 293 292 291
3 293 261 292
3 294 295 296
3 294 297 295
3 298 297 294
3 298 299 297
3 300 299 298
3 300 301 299
3 302 303 304
3 302 305 303
3 306 305 302
3 306 307 305
3 308 307 306
3 308 306 309
3 310 308 309
3 310 309 311
3 304 312 313
3 304 303 312
3 303 314 312
3 303 315 314
3 305 315 303
3 305 316 315
3 307 316 305
3 307 317 316
3 318 317 307
3 318 307 308
3 319 318 308
3 319 308 310
3 320 319 310
3 320 310 321
3 321 310 311
3 321 311 322
3 323 322 324
3 323 321 322
3 325 321 323
3 325 320 321
3 326 320 325
3 326 327 320
3 327 319 320
3 327 328 319
3 328 318 319
3 328 329 318
3 318 329 330
3 318 330 317
3 331 317 330
3 331 316 317
3 332 316 331
3 332 315 316
3 333 315 332
3 333 314 315
3 334 314 333
3 334 335 314
3 312 314 335
3 312 335 336
3 313 312 336
3 313 336 337
3 338 339 340
3 338 341 339
3 341 342 339
3 341 343 342
3 343 344 342
3 343 345 344
3 346 347 348
3 346 349 347
3 349 350 347
3 351 347 350
3 351 352 347
3 352 353 347
3 354 355 353
3 354 356 355
3 357 355 356
3 357 358 355
3 359 355 358
3 359 348 355
3 360 361 362
3 360 363 361
3 361 363 364
3 363 365 364
3 363 366 365
3 365 366 367
3 366 368 367
3 366 369 368
3 368 369 370
3 369 371 370
3 369 372 371
3 371 372 373
3 372 374 373
3 372 375 374
3 376 377 378
3 376 379 377
3 379 380 377
3 379 381 380
3 381 382 380
3 381 383 382
3 384 278 276
3 385 278 384
3 385 282 278
3 386 282 385
3 386 285 282
3 387 285 386
3 387 288 285
3 388 288 387
3 388 389 288
3 390 389 388
3 390 262 389
3 391 262 390
3 391 260 262
3 265 260 391
3 265 391 392
3 268 265 392
3 268 392 393
3 271 268 393
3 271 393 394
3 274 271 394
3 274 394 395
3 396 274 395
3 396 276 274
3 384 276 396
3 397 398 399
3 400 398 397
3 400 401 398
3 402 401 400
3 402 403 401
3 404 403 402
3 404 405 403
3 406 405 404
3 406 407 405
3 408 407 406
3 408 409 407
3 410 409 408
3 410 411 409
3 412 411 410
3 412 413 411
3 414 413 412
3 414 415 413
3 416 415 414
3 416 417 415
3 418 417 416
3 418 419 417
3 420 419 418
3 420 399 419
3 397 399 420
3 421 422 423
3 423 422 424
3 423 424 425
3 425 424 426
3 425 426 427
3 427 426 428
3 427 428 429
3 429 428 430
3 429 430 431
3 431 430 432
3 431 432 433
3 433 432 434
3 433 434 435
3 435 434 436
3 435 436 437
3 437 436 438
3 437 438 439
3 439 438 440
3 439 440 441
3 441 440 442
3 441 442 443
3 443 442 444
3 443 444 421
3 421 444 422
