ply
format ascii 1.0
comment Created by Blender 2.76 (sub 0) - www.blender.org, source file: ''
element vertex 174
property float x
property float y
property float z
property float nx
property float ny
property float nz
property float s
property float t
property uchar red
property uchar green
property uchar blue
element face 56
property list uchar uint vertex_indices
end_header
1.000000 3.993828 0.558585 0.000000 0.000000 -1.000000 0.000000 0.000000 8 4 17
1.000000 -1.000000 0.558585 0.000000 0.000000 -1.000000 1.000000 0.000000 5 1 1
-1.000000 -1.000000 0.558585 0.000000 0.000000 -1.000000 1.000000 1.000000 5 1 1
-1.000000 3.993829 0.558585 0.000000 0.000000 -1.000000 0.000000 1.000000 35 35 36
-0.414298 0.189854 2.593979 -0.033299 -0.013336 0.999356 0.000000 0.000000 1 1 1
-1.000000 0.248457 2.558585 -0.033299 -0.013336 0.999356 1.000000 0.000000 35 35 36
-1.000000 -1.000000 2.558585 -0.033299 -0.013336 0.999356 1.000000 1.000000 2 1 1
-0.500000 -1.000000 2.558585 -0.033299 -0.013336 0.999356 0.000000 1.000000 0 0 0
1.000000 -1.000000 0.558585 0.881990 0.000000 -0.471267 0.109084 0.811745 5 1 1
1.000000 3.993828 0.558585 0.881990 0.000000 -0.471267 0.500000 1.000000 8 4 17
2.371234 3.056177 3.124888 0.881990 0.000000 -0.471267 0.890916 0.811745 8 4 17
2.028425 2.042133 2.983313 0.000000 0.000000 0.000000 0.987464 0.388739 35 35 36
1.685617 1.028088 2.841737 0.000000 0.000000 0.000000 0.716942 0.049516 12 5 26
1.342808 0.014044 2.700161 0.000000 0.000000 0.000000 0.283058 0.049516 0 0 0
1.000000 -1.000000 0.558585 0.947331 -0.320256 0.000000 0.109084 0.811745 5 1 1
2.371234 3.056177 3.124888 0.947331 -0.320256 0.000000 0.890916 0.811745 8 4 17
2.028425 2.042133 2.983313 0.947331 -0.320256 0.000000 0.987464 0.388739 35 35 36
1.342808 0.014044 2.700161 0.947331 -0.320256 0.000000 0.283058 0.049516 0 0 0
0.999999 -1.000001 2.558585 0.947331 -0.320256 0.000000 0.012536 0.388740 2 1 1
-1.000000 -1.000000 0.558585 -0.000000 -1.000000 -0.000000 0.109084 0.811745 5 1 1
1.000000 -1.000000 0.558585 -0.000000 -1.000000 -0.000000 0.500000 1.000000 5 1 1
0.999999 -1.000001 2.558585 -0.000000 -1.000000 -0.000000 0.890916 0.811745 2 1 1
0.999999 -1.000001 2.558585 0.000000 0.000000 0.000000 0.890916 0.811745 2 1 1
0.499999 -1.000000 2.558585 0.000000 0.000000 0.000000 0.987464 0.388739 35 35 36
-0.000001 -1.000000 2.558585 0.000000 0.000000 0.000000 0.716942 0.049516 12 5 26
-0.000001 -1.000000 2.558585 0.000000 0.000000 -1.000000 0.716942 0.049516 12 5 26
-0.500000 -1.000000 2.558585 0.000000 0.000000 -1.000000 0.283058 0.049516 0 0 0
-1.000000 -1.000000 2.558585 0.000000 0.000000 -1.000000 0.012536 0.388740 2 1 1
-0.000001 -1.000000 2.558585 -0.000000 -1.000000 0.000000 0.716942 0.049516 12 5 26
-1.000000 -1.000000 2.558585 -0.000000 -1.000000 0.000000 0.012536 0.388740 2 1 1
-1.000000 3.993829 0.558585 -1.000000 0.000000 -0.000000 0.109084 0.811745 35 35 36
-1.000000 -1.000000 0.558585 -1.000000 0.000000 -0.000000 0.500000 1.000000 5 1 1
-1.000000 -1.000000 2.558585 -1.000000 0.000000 -0.000000 0.890916 0.811745 2 1 1
-1.000000 -1.000000 2.558585 0.000000 0.000000 0.000000 0.890916 0.811745 2 1 1
-1.000000 0.248457 2.558585 0.000000 0.000000 0.000000 0.987464 0.388739 35 35 36
-1.000000 1.496914 2.558585 0.000000 0.000000 0.000000 0.716942 0.049516 12 5 26
-1.000000 1.496914 2.558585 0.000000 0.000000 1.000000 0.716942 0.049516 12 5 26
-1.000000 2.745371 2.558585 0.000000 0.000000 1.000000 0.283058 0.049516 9 4 18
-1.000000 3.993828 2.558585 0.000000 0.000000 1.000000 0.012536 0.388740 12 5 26
-1.000000 1.496914 2.558585 -1.000000 0.000000 -0.000000 0.716942 0.049516 12 5 26
-1.000000 3.993828 2.558585 -1.000000 0.000000 -0.000000 0.012536 0.388740 12 5 26
1.528426 3.290590 2.983313 0.225677 0.947702 0.225678 0.109084 0.811745 5 1 1
2.371234 3.056177 3.124888 0.225677 0.947702 0.225678 0.500000 1.000000 8 4 17
1.000000 3.993828 0.558585 0.225677 0.947702 0.225678 0.890916 0.811745 8 4 17
1.000000 3.993828 0.558585 0.000000 1.000000 0.000000 0.890916 0.811745 8 4 17
-1.000000 3.993829 0.558585 0.000000 1.000000 0.000000 0.987464 0.388739 35 35 36
-1.000000 3.993828 2.558585 0.000000 1.000000 0.000000 0.716942 0.049516 12 5 26
-1.000000 3.993828 2.558585 0.158580 -0.035240 -0.986717 0.716942 0.049516 12 5 26
-0.157191 3.759416 2.700161 0.158580 -0.035240 -0.986717 0.283058 0.049516 0 0 0
0.685617 3.525003 2.841737 0.158580 -0.035240 -0.986717 0.012536 0.388740 2 1 1
0.685617 3.525003 2.841737 0.225678 0.947702 0.225678 0.012536 0.388740 2 1 1
1.528426 3.290590 2.983313 0.225678 0.947702 0.225678 0.109084 0.811745 5 1 1
1.000000 3.993828 0.558585 0.225678 0.947702 0.225678 0.890916 0.811745 8 4 17
-1.000000 3.993828 2.558585 0.225678 0.947702 0.225678 0.716942 0.049516 12 5 26
0.757106 0.072647 2.664767 -0.036429 -0.072948 0.996670 0.000000 0.000000 2 1 1
0.171404 0.131251 2.629373 -0.036429 -0.072948 0.996670 1.000000 0.000000 2 1 4
-0.000001 -1.000000 2.558585 -0.036429 -0.072948 0.996670 1.000000 1.000000 12 5 26
0.499999 -1.000000 2.558585 -0.036429 -0.072948 0.996670 0.000000 1.000000 35 35 36
1.014212 1.145295 2.770949 -0.152526 -0.061086 0.986410 0.024472 0.654509 2 1 4
1.271319 2.217942 2.877131 -0.152526 -0.061086 0.986410 0.500000 1.000000 4 2 9
0.514213 2.393752 2.770949 -0.152526 -0.061086 0.986410 0.975528 0.654508 9 4 18
0.514213 2.393752 2.770949 -0.985887 0.152982 -0.067992 0.975528 0.654508 9 4 18
0.428510 1.828127 2.735555 -0.985887 0.152982 -0.067992 0.793893 0.095491 13 6 29
0.342808 1.262501 2.700161 -0.985887 0.152982 -0.067992 0.206107 0.095492 1 1 1
0.514213 2.393752 2.770949 -0.112522 -0.045064 0.992627 0.975528 0.654508 9 4 18
0.342808 1.262501 2.700161 -0.112522 -0.045064 0.992627 0.206107 0.095492 1 1 1
1.014212 1.145295 2.770949 -0.112522 -0.045064 0.992627 0.024472 0.654509 2 1 4
-0.285745 1.974635 2.647070 -0.143215 -0.019119 0.989507 0.024472 0.654509 2 1 4
-0.242894 2.569562 2.664767 -0.143215 -0.019119 0.989507 0.500000 1.000000 13 6 29
-1.000000 2.745371 2.558585 -0.143215 -0.019119 0.989507 0.975528 0.654508 9 4 18
-1.000000 2.745371 2.558585 -0.104851 0.000000 0.994488 0.975528 0.654508 9 4 18
-1.000000 1.496914 2.558585 -0.104851 0.000000 0.994488 0.793893 0.095491 12 5 26
-0.328596 1.379708 2.629373 -0.104851 0.000000 0.994488 0.206107 0.095492 13 6 29
-0.328596 1.379708 2.629373 -0.143215 -0.019119 0.989507 0.206107 0.095492 13 6 29
0.071383 1.901381 2.691312 -0.116766 -0.027643 0.992775 0.000000 0.000000 2 1 1
-0.056718 1.957274 2.676143 -0.116766 -0.027643 0.992775 1.000000 0.000000 2 1 1
-0.084386 1.571734 2.663813 -0.116766 -0.027643 0.992775 1.000000 1.000000 2 1 1
0.045632 1.549070 2.676815 -0.116766 -0.027643 0.992775 0.000000 1.000000 2 1 1
0.514213 2.393752 2.770949 -0.175031 -0.035050 0.983939 0.024472 0.654509 9 4 18
0.685617 3.525003 2.841737 -0.175031 -0.035050 0.983939 0.500000 1.000000 2 1 1
-0.157191 3.759416 2.700161 -0.175031 -0.035050 0.983939 0.975528 0.654508 0 0 0
-0.157191 3.759416 2.700161 -0.143215 -0.019119 0.989507 0.975528 0.654508 0 0 0
-0.242894 2.569562 2.664767 -0.143215 -0.019119 0.989507 0.793893 0.095491 13 6 29
0.135659 2.481657 2.717858 -0.143215 -0.019119 0.989507 0.206107 0.095492 1 1 1
0.514213 2.393752 2.770949 -0.143215 -0.019119 0.989507 0.024472 0.654509 9 4 18
-0.157191 3.759416 2.700161 -0.155250 -0.008883 0.987835 0.000000 0.000000 0 0 0
-1.000000 3.993828 2.558585 -0.155250 -0.008883 0.987835 1.000000 0.000000 12 5 26
-1.000000 2.745371 2.558585 -0.155250 -0.008883 0.987835 1.000000 1.000000 9 4 18
-0.242894 2.569562 2.664767 -0.155250 -0.008883 0.987835 0.000000 1.000000 13 6 29
2.028425 2.042133 2.983313 -0.138215 -0.077496 0.987366 0.000000 0.000000 35 35 36
1.271319 2.217942 2.877131 -0.138215 -0.077496 0.987366 1.000000 0.000000 4 2 9
1.014212 1.145295 2.770949 -0.138215 -0.077496 0.987366 1.000000 1.000000 2 1 4
1.685617 1.028088 2.841737 -0.138215 -0.077496 0.987366 0.000000 1.000000 12 5 26
2.371234 3.056177 3.124888 -0.169671 -0.067952 0.983155 0.000000 0.000000 8 4 17
1.528426 3.290590 2.983313 -0.169671 -0.067952 0.983155 1.000000 0.000000 5 1 1
1.271319 2.217942 2.877131 -0.169671 -0.067952 0.983155 1.000000 1.000000 4 2 9
2.028425 2.042133 2.983313 -0.169671 -0.067952 0.983155 0.000000 1.000000 35 35 36
1.528426 3.290590 2.983313 -0.164646 -0.047100 0.985228 0.000000 0.000000 5 1 1
0.685617 3.525003 2.841737 -0.164646 -0.047100 0.985228 1.000000 0.000000 2 1 1
0.514213 2.393752 2.770949 -0.164646 -0.047100 0.985228 1.000000 1.000000 9 4 18
1.271319 2.217942 2.877131 -0.164646 -0.047100 0.985228 0.000000 1.000000 4 2 9
1.342808 0.014044 2.700161 -0.038164 -0.106991 0.993527 0.000000 0.000000 0 0 0
0.757106 0.072647 2.664767 -0.038164 -0.106991 0.993527 1.000000 0.000000 2 1 1
0.499999 -1.000000 2.558585 -0.038164 -0.106991 0.993527 1.000000 1.000000 35 35 36
0.999999 -1.000001 2.558585 -0.038164 -0.106991 0.993527 0.000000 1.000000 2 1 1
1.685617 1.028088 2.841737 -0.096316 -0.090006 0.991273 0.000000 0.000000 12 5 26
1.014212 1.145295 2.770949 -0.096316 -0.090006 0.991273 1.000000 0.000000 2 1 4
0.757106 0.072647 2.664767 -0.096316 -0.090006 0.991273 1.000000 1.000000 2 1 1
1.342808 0.014044 2.700161 -0.096316 -0.090006 0.991273 0.000000 1.000000 0 0 0
1.014212 1.145295 2.770949 -0.092583 -0.061798 0.993785 0.000000 0.000000 2 1 4
0.342808 1.262501 2.700161 -0.092583 -0.061798 0.993785 1.000000 0.000000 1 1 1
0.171404 0.131251 2.629373 -0.092583 -0.061798 0.993785 1.000000 1.000000 2 1 4
0.757106 0.072647 2.664767 -0.092583 -0.061798 0.993785 0.000000 1.000000 2 1 1
0.171404 0.131251 2.629373 -0.034809 -0.041823 0.998518 0.000000 0.000000 2 1 4
-0.414298 0.189854 2.593979 -0.034809 -0.041823 0.998518 1.000000 0.000000 1 1 1
-0.500000 -1.000000 2.558585 -0.034809 -0.041823 0.998518 1.000000 1.000000 0 0 0
-0.000001 -1.000000 2.558585 -0.034809 -0.041823 0.998518 0.000000 1.000000 12 5 26
0.171404 0.131251 2.629373 -0.112523 -0.045064 0.992627 0.024472 0.654509 2 1 4
0.342808 1.262501 2.700161 -0.112523 -0.045064 0.992627 0.500000 1.000000 1 1 1
0.007106 1.321105 2.664767 -0.112523 -0.045064 0.992627 0.975528 0.654508 9 4 18
0.007106 1.321105 2.664767 -0.108579 -0.021743 0.993850 0.975528 0.654508 9 4 18
-0.328596 1.379708 2.629373 -0.108579 -0.021743 0.993850 0.793893 0.095491 13 6 29
-0.414298 0.189854 2.593979 -0.108579 -0.021743 0.993850 0.206107 0.095492 1 1 1
0.007106 1.321105 2.664767 -0.064115 -0.038516 0.997199 0.975528 0.654508 9 4 18
-0.414298 0.189854 2.593979 -0.064115 -0.038516 0.997199 0.206107 0.095492 1 1 1
0.171404 0.131251 2.629373 -0.064115 -0.038516 0.997199 0.024472 0.654509 2 1 4
-0.328596 1.379708 2.629373 -0.085749 -0.011448 0.996251 0.000000 0.000000 13 6 29
-1.000000 1.496914 2.558585 -0.085749 -0.011448 0.996251 1.000000 0.000000 12 5 26
-1.000000 0.248457 2.558585 -0.085749 -0.011448 0.996251 1.000000 1.000000 35 35 36
-0.414298 0.189854 2.593979 -0.085749 -0.011448 0.996251 0.000000 1.000000 1 1 1
0.201608 1.864285 2.707131 -0.117970 -0.037064 0.992325 0.000000 0.000000 2 1 1
0.071383 1.901381 2.691312 -0.117970 -0.037064 0.992325 1.000000 0.000000 2 1 1
0.045632 1.549070 2.676815 -0.117970 -0.037064 0.992325 1.000000 1.000000 2 1 1
0.150991 1.530735 2.686933 -0.117970 -0.037064 0.992325 0.000000 1.000000 2 1 1
0.255114 2.216649 2.728317 -0.141006 -0.033960 0.989426 0.000000 0.000000 2 1 1
0.085234 2.256130 2.703995 -0.141006 -0.033960 0.989426 1.000000 0.000000 2 1 1
0.071383 1.901381 2.691312 -0.141006 -0.033960 0.989426 1.000000 1.000000 2 1 1
0.201608 1.864285 2.707131 -0.141006 -0.033960 0.989426 0.000000 1.000000 2 1 1
0.085234 2.256130 2.703995 -0.139913 -0.025793 0.989828 0.000000 0.000000 2 1 1
-0.033291 2.283703 2.686479 -0.139913 -0.025793 0.989828 1.000000 0.000000 2 1 1
-0.056718 1.957274 2.676143 -0.139913 -0.025793 0.989828 1.000000 1.000000 2 1 1
0.071383 1.901381 2.691312 -0.139913 -0.025793 0.989828 0.000000 1.000000 2 1 1
0.201608 1.864285 2.707131 -0.128884 -0.041716 0.990782 0.000000 0.000000 2 1 1
0.150991 1.530735 2.686933 -0.128884 -0.041716 0.990782 1.000000 0.000000 2 1 1
0.342808 1.262501 2.700161 -0.128884 -0.041716 0.990782 1.000000 1.000000 1 1 1
0.428510 1.828127 2.735555 -0.128884 -0.041716 0.990782 0.000000 1.000000 13 6 29
0.150991 1.530735 2.686933 -0.107939 -0.030982 0.993675 0.000000 0.000000 2 1 1
0.045632 1.549070 2.676815 -0.107939 -0.030982 0.993675 1.000000 0.000000 2 1 1
0.007106 1.321105 2.664767 -0.107939 -0.030982 0.993675 1.000000 1.000000 9 4 18
0.342808 1.262501 2.700161 -0.107939 -0.030982 0.993675 0.000000 1.000000 1 1 1
-0.084386 1.571734 2.663813 -0.125234 -0.021370 0.991897 0.000000 0.000000 2 1 1
-0.056718 1.957274 2.676143 -0.125234 -0.021370 0.991897 1.000000 0.000000 2 1 1
-0.285745 1.974635 2.647070 -0.125234 -0.021370 0.991897 1.000000 1.000000 2 1 4
-0.328596 1.379708 2.629373 -0.125234 -0.021370 0.991897 0.000000 1.000000 13 6 29
0.085234 2.256130 2.703995 -0.145792 -0.026684 0.988955 0.000000 0.000000 2 1 1
0.255114 2.216649 2.728317 -0.145792 -0.026684 0.988955 1.000000 0.000000 2 1 1
0.514213 2.393752 2.770949 -0.145792 -0.026684 0.988955 1.000000 1.000000 9 4 18
0.135659 2.481657 2.717858 -0.145792 -0.026684 0.988955 0.000000 1.000000 1 1 1
0.255114 2.216649 2.728317 -0.132928 -0.040879 0.990282 0.000000 0.000000 2 1 1
0.201608 1.864285 2.707131 -0.132928 -0.040879 0.990282 1.000000 0.000000 2 1 1
0.428510 1.828127 2.735555 -0.132928 -0.040879 0.990282 1.000000 1.000000 13 6 29
0.514213 2.393752 2.770949 -0.132928 -0.040879 0.990282 0.000000 1.000000 9 4 18
0.045632 1.549070 2.676815 -0.109540 -0.036206 0.993323 0.000000 0.000000 2 1 1
-0.084386 1.571734 2.663813 -0.109540 -0.036206 0.993323 1.000000 0.000000 2 1 1
-0.328596 1.379708 2.629373 -0.109540 -0.036206 0.993323 1.000000 1.000000 13 6 29
0.007106 1.321105 2.664767 -0.109540 -0.036206 0.993323 0.000000 1.000000 9 4 18
-0.056718 1.957274 2.676143 -0.129212 -0.020869 0.991397 0.000000 0.000000 2 1 1
-0.033291 2.283703 2.686479 -0.129212 -0.020869 0.991397 1.000000 0.000000 2 1 1
-0.242894 2.569562 2.664767 -0.129212 -0.020869 0.991397 1.000000 1.000000 13 6 29
-0.285745 1.974635 2.647070 -0.129212 -0.020869 0.991397 0.000000 1.000000 2 1 4
-0.033291 2.283703 2.686479 -0.147567 -0.030758 0.988574 0.000000 0.000000 2 1 1
0.085234 2.256130 2.703995 -0.147567 -0.030758 0.988574 1.000000 0.000000 2 1 1
0.135659 2.481657 2.717858 -0.147567 -0.030758 0.988574 1.000000 1.000000 1 1 1
-0.242894 2.569562 2.664767 -0.147567 -0.030758 0.988574 0.000000 1.000000 13 6 29
4 0 1 2 3
4 4 5 6 7
3 8 9 10
3 11 12 13
3 14 15 16
3 17 18 14
3 16 17 14
3 19 20 21
3 22 23 24
3 25 26 27
3 19 21 28
3 28 29 19
3 30 31 32
3 33 34 35
3 36 37 38
3 30 32 39
3 39 40 30
3 41 42 43
3 44 45 46
3 47 48 49
3 50 51 52
3 52 53 50
4 54 55 56 57
3 58 59 60
3 61 62 63
3 64 65 66
3 67 68 69
3 70 71 72
3 69 73 67
4 74 75 76 77
3 78 79 80
3 81 82 83
3 81 83 84
4 85 86 87 88
4 89 90 91 92
4 93 94 95 96
4 97 98 99 100
4 101 102 103 104
4 105 106 107 108
4 109 110 111 112
4 113 114 115 116
3 117 118 119
3 120 121 122
3 123 124 125
4 126 127 128 129
4 130 131 132 133
4 134 135 136 137
4 138 139 140 141
4 142 143 144 145
4 146 147 148 149
4 150 151 152 153
4 154 155 156 157
4 158 159 160 161
4 162 163 164 165
4 166 167 168 169
4 170 171 172 173
